<?xml version="1.0" encoding="utf-8" standalone="no"?>
<!DOCTYPE svg PUBLIC "-//W3C//DTD SVG 1.1//EN"
  "http://www.w3.org/Graphics/SVG/1.1/DTD/svg11.dtd">
<svg xmlns:xlink="http://www.w3.org/1999/xlink" width="460.8pt" height="345.6pt" viewBox="0 0 460.8 345.6" xmlns="http://www.w3.org/2000/svg" version="1.1">
 <metadata>
  <rdf:RDF xmlns:dc="http://purl.org/dc/elements/1.1/" xmlns:cc="http://creativecommons.org/ns#" xmlns:rdf="http://www.w3.org/1999/02/22-rdf-syntax-ns#">
   <cc:Work>
    <dc:type rdf:resource="http://purl.org/dc/dcmitype/StillImage"/>
    <dc:date>2026-06-01T15:14:44.713732</dc:date>
    <dc:format>image/svg+xml</dc:format>
    <dc:creator>
     <cc:Agent>
      <dc:title>Matplotlib v3.10.1, https://matplotlib.org/</dc:title>
     </cc:Agent>
    </dc:creator>
   </cc:Work>
  </rdf:RDF>
 </metadata>
 <defs>
  <style type="text/css">*{stroke-linejoin: round; stroke-linecap: butt}</style>
 </defs>
 <g id="figure_1">
  <g id="patch_1">
   <path d="M 0 345.6 
L 460.8 345.6 
L 460.8 0 
L 0 0 
z
" style="fill: #ffffff"/>
  </g>
  <g id="axes_1">
   <g id="patch_2">
    <path d="M 57.6 307.584 
L 414.72 307.584 
L 414.72 41.472 
L 57.6 41.472 
z
" style="fill: #ffffff"/>
   </g>
   <g id="matplotlib.axis_1">
    <g id="xtick_1">
     <g id="line2d_1">
      <path d="M 73.832727 307.584 
L 73.832727 41.472 
" clip-path="url(#pacc09d9d60)" style="fill: none; stroke: #b0b0b0; stroke-width: 0.8; stroke-linecap: square"/>
     </g>
     <g id="line2d_2">
      <defs>
       <path id="m1291fd3658" d="M 0 0 
L 0 3.5 
" style="stroke: #000000; stroke-width: 0.8"/>
      </defs>
      <g>
       <use xlink:href="#m1291fd3658" x="73.832727" y="307.584" style="stroke: #000000; stroke-width: 0.8"/>
      </g>
     </g>
     <g id="text_1">
      <!-- 0 -->
      <g transform="translate(70.651477 322.182437) scale(0.1 -0.1)">
       <defs>
        <path id="DejaVuSans-30" d="M 2034 4250 
Q 1547 4250 1301 3770 
Q 1056 3291 1056 2328 
Q 1056 1369 1301 889 
Q 1547 409 2034 409 
Q 2525 409 2770 889 
Q 3016 1369 3016 2328 
Q 3016 3291 2770 3770 
Q 2525 4250 2034 4250 
z
M 2034 4750 
Q 2819 4750 3233 4129 
Q 3647 3509 3647 2328 
Q 3647 1150 3233 529 
Q 2819 -91 2034 -91 
Q 1250 -91 836 529 
Q 422 1150 422 2328 
Q 422 3509 836 4129 
Q 1250 4750 2034 4750 
z
" transform="scale(0.015625)"/>
       </defs>
       <use xlink:href="#DejaVuSans-30"/>
      </g>
     </g>
    </g>
    <g id="xtick_2">
     <g id="line2d_3">
      <path d="M 117.943399 307.584 
L 117.943399 41.472 
" clip-path="url(#pacc09d9d60)" style="fill: none; stroke: #b0b0b0; stroke-width: 0.8; stroke-linecap: square"/>
     </g>
     <g id="line2d_4">
      <g>
       <use xlink:href="#m1291fd3658" x="117.943399" y="307.584" style="stroke: #000000; stroke-width: 0.8"/>
      </g>
     </g>
     <g id="text_2">
      <!-- 25 -->
      <g transform="translate(111.580899 322.182437) scale(0.1 -0.1)">
       <defs>
        <path id="DejaVuSans-32" d="M 1228 531 
L 3431 531 
L 3431 0 
L 469 0 
L 469 531 
Q 828 903 1448 1529 
Q 2069 2156 2228 2338 
Q 2531 2678 2651 2914 
Q 2772 3150 2772 3378 
Q 2772 3750 2511 3984 
Q 2250 4219 1831 4219 
Q 1534 4219 1204 4116 
Q 875 4013 500 3803 
L 500 4441 
Q 881 4594 1212 4672 
Q 1544 4750 1819 4750 
Q 2544 4750 2975 4387 
Q 3406 4025 3406 3419 
Q 3406 3131 3298 2873 
Q 3191 2616 2906 2266 
Q 2828 2175 2409 1742 
Q 1991 1309 1228 531 
z
" transform="scale(0.015625)"/>
        <path id="DejaVuSans-35" d="M 691 4666 
L 3169 4666 
L 3169 4134 
L 1269 4134 
L 1269 2991 
Q 1406 3038 1543 3061 
Q 1681 3084 1819 3084 
Q 2600 3084 3056 2656 
Q 3513 2228 3513 1497 
Q 3513 744 3044 326 
Q 2575 -91 1722 -91 
Q 1428 -91 1123 -41 
Q 819 9 494 109 
L 494 744 
Q 775 591 1075 516 
Q 1375 441 1709 441 
Q 2250 441 2565 725 
Q 2881 1009 2881 1497 
Q 2881 1984 2565 2268 
Q 2250 2553 1709 2553 
Q 1456 2553 1204 2497 
Q 953 2441 691 2322 
L 691 4666 
z
" transform="scale(0.015625)"/>
       </defs>
       <use xlink:href="#DejaVuSans-32"/>
       <use xlink:href="#DejaVuSans-35" transform="translate(63.623047 0)"/>
      </g>
     </g>
    </g>
    <g id="xtick_3">
     <g id="line2d_5">
      <path d="M 162.054071 307.584 
L 162.054071 41.472 
" clip-path="url(#pacc09d9d60)" style="fill: none; stroke: #b0b0b0; stroke-width: 0.8; stroke-linecap: square"/>
     </g>
     <g id="line2d_6">
      <g>
       <use xlink:href="#m1291fd3658" x="162.054071" y="307.584" style="stroke: #000000; stroke-width: 0.8"/>
      </g>
     </g>
     <g id="text_3">
      <!-- 50 -->
      <g transform="translate(155.691571 322.182437) scale(0.1 -0.1)">
       <use xlink:href="#DejaVuSans-35"/>
       <use xlink:href="#DejaVuSans-30" transform="translate(63.623047 0)"/>
      </g>
     </g>
    </g>
    <g id="xtick_4">
     <g id="line2d_7">
      <path d="M 206.164743 307.584 
L 206.164743 41.472 
" clip-path="url(#pacc09d9d60)" style="fill: none; stroke: #b0b0b0; stroke-width: 0.8; stroke-linecap: square"/>
     </g>
     <g id="line2d_8">
      <g>
       <use xlink:href="#m1291fd3658" x="206.164743" y="307.584" style="stroke: #000000; stroke-width: 0.8"/>
      </g>
     </g>
     <g id="text_4">
      <!-- 75 -->
      <g transform="translate(199.802243 322.182437) scale(0.1 -0.1)">
       <defs>
        <path id="DejaVuSans-37" d="M 525 4666 
L 3525 4666 
L 3525 4397 
L 1831 0 
L 1172 0 
L 2766 4134 
L 525 4134 
L 525 4666 
z
" transform="scale(0.015625)"/>
       </defs>
       <use xlink:href="#DejaVuSans-37"/>
       <use xlink:href="#DejaVuSans-35" transform="translate(63.623047 0)"/>
      </g>
     </g>
    </g>
    <g id="xtick_5">
     <g id="line2d_9">
      <path d="M 250.275415 307.584 
L 250.275415 41.472 
" clip-path="url(#pacc09d9d60)" style="fill: none; stroke: #b0b0b0; stroke-width: 0.8; stroke-linecap: square"/>
     </g>
     <g id="line2d_10">
      <g>
       <use xlink:href="#m1291fd3658" x="250.275415" y="307.584" style="stroke: #000000; stroke-width: 0.8"/>
      </g>
     </g>
     <g id="text_5">
      <!-- 100 -->
      <g transform="translate(240.731665 322.182437) scale(0.1 -0.1)">
       <defs>
        <path id="DejaVuSans-31" d="M 794 531 
L 1825 531 
L 1825 4091 
L 703 3866 
L 703 4441 
L 1819 4666 
L 2450 4666 
L 2450 531 
L 3481 531 
L 3481 0 
L 794 0 
L 794 531 
z
" transform="scale(0.015625)"/>
       </defs>
       <use xlink:href="#DejaVuSans-31"/>
       <use xlink:href="#DejaVuSans-30" transform="translate(63.623047 0)"/>
       <use xlink:href="#DejaVuSans-30" transform="translate(127.246094 0)"/>
      </g>
     </g>
    </g>
    <g id="xtick_6">
     <g id="line2d_11">
      <path d="M 294.386087 307.584 
L 294.386087 41.472 
" clip-path="url(#pacc09d9d60)" style="fill: none; stroke: #b0b0b0; stroke-width: 0.8; stroke-linecap: square"/>
     </g>
     <g id="line2d_12">
      <g>
       <use xlink:href="#m1291fd3658" x="294.386087" y="307.584" style="stroke: #000000; stroke-width: 0.8"/>
      </g>
     </g>
     <g id="text_6">
      <!-- 125 -->
      <g transform="translate(284.842337 322.182437) scale(0.1 -0.1)">
       <use xlink:href="#DejaVuSans-31"/>
       <use xlink:href="#DejaVuSans-32" transform="translate(63.623047 0)"/>
       <use xlink:href="#DejaVuSans-35" transform="translate(127.246094 0)"/>
      </g>
     </g>
    </g>
    <g id="xtick_7">
     <g id="line2d_13">
      <path d="M 338.496759 307.584 
L 338.496759 41.472 
" clip-path="url(#pacc09d9d60)" style="fill: none; stroke: #b0b0b0; stroke-width: 0.8; stroke-linecap: square"/>
     </g>
     <g id="line2d_14">
      <g>
       <use xlink:href="#m1291fd3658" x="338.496759" y="307.584" style="stroke: #000000; stroke-width: 0.8"/>
      </g>
     </g>
     <g id="text_7">
      <!-- 150 -->
      <g transform="translate(328.953009 322.182437) scale(0.1 -0.1)">
       <use xlink:href="#DejaVuSans-31"/>
       <use xlink:href="#DejaVuSans-35" transform="translate(63.623047 0)"/>
       <use xlink:href="#DejaVuSans-30" transform="translate(127.246094 0)"/>
      </g>
     </g>
    </g>
    <g id="xtick_8">
     <g id="line2d_15">
      <path d="M 382.607431 307.584 
L 382.607431 41.472 
" clip-path="url(#pacc09d9d60)" style="fill: none; stroke: #b0b0b0; stroke-width: 0.8; stroke-linecap: square"/>
     </g>
     <g id="line2d_16">
      <g>
       <use xlink:href="#m1291fd3658" x="382.607431" y="307.584" style="stroke: #000000; stroke-width: 0.8"/>
      </g>
     </g>
     <g id="text_8">
      <!-- 175 -->
      <g transform="translate(373.063681 322.182437) scale(0.1 -0.1)">
       <use xlink:href="#DejaVuSans-31"/>
       <use xlink:href="#DejaVuSans-37" transform="translate(63.623047 0)"/>
       <use xlink:href="#DejaVuSans-35" transform="translate(127.246094 0)"/>
      </g>
     </g>
    </g>
    <g id="text_9">
     <!-- Number of terms -->
     <g transform="translate(193.596719 335.860562) scale(0.1 -0.1)">
      <defs>
       <path id="DejaVuSans-4e" d="M 628 4666 
L 1478 4666 
L 3547 763 
L 3547 4666 
L 4159 4666 
L 4159 0 
L 3309 0 
L 1241 3903 
L 1241 0 
L 628 0 
L 628 4666 
z
" transform="scale(0.015625)"/>
       <path id="DejaVuSans-75" d="M 544 1381 
L 544 3500 
L 1119 3500 
L 1119 1403 
Q 1119 906 1312 657 
Q 1506 409 1894 409 
Q 2359 409 2629 706 
Q 2900 1003 2900 1516 
L 2900 3500 
L 3475 3500 
L 3475 0 
L 2900 0 
L 2900 538 
Q 2691 219 2414 64 
Q 2138 -91 1772 -91 
Q 1169 -91 856 284 
Q 544 659 544 1381 
z
M 1991 3584 
L 1991 3584 
z
" transform="scale(0.015625)"/>
       <path id="DejaVuSans-6d" d="M 3328 2828 
Q 3544 3216 3844 3400 
Q 4144 3584 4550 3584 
Q 5097 3584 5394 3201 
Q 5691 2819 5691 2113 
L 5691 0 
L 5113 0 
L 5113 2094 
Q 5113 2597 4934 2840 
Q 4756 3084 4391 3084 
Q 3944 3084 3684 2787 
Q 3425 2491 3425 1978 
L 3425 0 
L 2847 0 
L 2847 2094 
Q 2847 2600 2669 2842 
Q 2491 3084 2119 3084 
Q 1678 3084 1418 2786 
Q 1159 2488 1159 1978 
L 1159 0 
L 581 0 
L 581 3500 
L 1159 3500 
L 1159 2956 
Q 1356 3278 1631 3431 
Q 1906 3584 2284 3584 
Q 2666 3584 2933 3390 
Q 3200 3197 3328 2828 
z
" transform="scale(0.015625)"/>
       <path id="DejaVuSans-62" d="M 3116 1747 
Q 3116 2381 2855 2742 
Q 2594 3103 2138 3103 
Q 1681 3103 1420 2742 
Q 1159 2381 1159 1747 
Q 1159 1113 1420 752 
Q 1681 391 2138 391 
Q 2594 391 2855 752 
Q 3116 1113 3116 1747 
z
M 1159 2969 
Q 1341 3281 1617 3432 
Q 1894 3584 2278 3584 
Q 2916 3584 3314 3078 
Q 3713 2572 3713 1747 
Q 3713 922 3314 415 
Q 2916 -91 2278 -91 
Q 1894 -91 1617 61 
Q 1341 213 1159 525 
L 1159 0 
L 581 0 
L 581 4863 
L 1159 4863 
L 1159 2969 
z
" transform="scale(0.015625)"/>
       <path id="DejaVuSans-65" d="M 3597 1894 
L 3597 1613 
L 953 1613 
Q 991 1019 1311 708 
Q 1631 397 2203 397 
Q 2534 397 2845 478 
Q 3156 559 3463 722 
L 3463 178 
Q 3153 47 2828 -22 
Q 2503 -91 2169 -91 
Q 1331 -91 842 396 
Q 353 884 353 1716 
Q 353 2575 817 3079 
Q 1281 3584 2069 3584 
Q 2775 3584 3186 3129 
Q 3597 2675 3597 1894 
z
M 3022 2063 
Q 3016 2534 2758 2815 
Q 2500 3097 2075 3097 
Q 1594 3097 1305 2825 
Q 1016 2553 972 2059 
L 3022 2063 
z
" transform="scale(0.015625)"/>
       <path id="DejaVuSans-72" d="M 2631 2963 
Q 2534 3019 2420 3045 
Q 2306 3072 2169 3072 
Q 1681 3072 1420 2755 
Q 1159 2438 1159 1844 
L 1159 0 
L 581 0 
L 581 3500 
L 1159 3500 
L 1159 2956 
Q 1341 3275 1631 3429 
Q 1922 3584 2338 3584 
Q 2397 3584 2469 3576 
Q 2541 3569 2628 3553 
L 2631 2963 
z
" transform="scale(0.015625)"/>
       <path id="DejaVuSans-20" transform="scale(0.015625)"/>
       <path id="DejaVuSans-6f" d="M 1959 3097 
Q 1497 3097 1228 2736 
Q 959 2375 959 1747 
Q 959 1119 1226 758 
Q 1494 397 1959 397 
Q 2419 397 2687 759 
Q 2956 1122 2956 1747 
Q 2956 2369 2687 2733 
Q 2419 3097 1959 3097 
z
M 1959 3584 
Q 2709 3584 3137 3096 
Q 3566 2609 3566 1747 
Q 3566 888 3137 398 
Q 2709 -91 1959 -91 
Q 1206 -91 779 398 
Q 353 888 353 1747 
Q 353 2609 779 3096 
Q 1206 3584 1959 3584 
z
" transform="scale(0.015625)"/>
       <path id="DejaVuSans-66" d="M 2375 4863 
L 2375 4384 
L 1825 4384 
Q 1516 4384 1395 4259 
Q 1275 4134 1275 3809 
L 1275 3500 
L 2222 3500 
L 2222 3053 
L 1275 3053 
L 1275 0 
L 697 0 
L 697 3053 
L 147 3053 
L 147 3500 
L 697 3500 
L 697 3744 
Q 697 4328 969 4595 
Q 1241 4863 1831 4863 
L 2375 4863 
z
" transform="scale(0.015625)"/>
       <path id="DejaVuSans-74" d="M 1172 4494 
L 1172 3500 
L 2356 3500 
L 2356 3053 
L 1172 3053 
L 1172 1153 
Q 1172 725 1289 603 
Q 1406 481 1766 481 
L 2356 481 
L 2356 0 
L 1766 0 
Q 1100 0 847 248 
Q 594 497 594 1153 
L 594 3053 
L 172 3053 
L 172 3500 
L 594 3500 
L 594 4494 
L 1172 4494 
z
" transform="scale(0.015625)"/>
       <path id="DejaVuSans-73" d="M 2834 3397 
L 2834 2853 
Q 2591 2978 2328 3040 
Q 2066 3103 1784 3103 
Q 1356 3103 1142 2972 
Q 928 2841 928 2578 
Q 928 2378 1081 2264 
Q 1234 2150 1697 2047 
L 1894 2003 
Q 2506 1872 2764 1633 
Q 3022 1394 3022 966 
Q 3022 478 2636 193 
Q 2250 -91 1575 -91 
Q 1294 -91 989 -36 
Q 684 19 347 128 
L 347 722 
Q 666 556 975 473 
Q 1284 391 1588 391 
Q 1994 391 2212 530 
Q 2431 669 2431 922 
Q 2431 1156 2273 1281 
Q 2116 1406 1581 1522 
L 1381 1569 
Q 847 1681 609 1914 
Q 372 2147 372 2553 
Q 372 3047 722 3315 
Q 1072 3584 1716 3584 
Q 2034 3584 2315 3537 
Q 2597 3491 2834 3397 
z
" transform="scale(0.015625)"/>
      </defs>
      <use xlink:href="#DejaVuSans-4e"/>
      <use xlink:href="#DejaVuSans-75" transform="translate(74.804688 0)"/>
      <use xlink:href="#DejaVuSans-6d" transform="translate(138.183594 0)"/>
      <use xlink:href="#DejaVuSans-62" transform="translate(235.595703 0)"/>
      <use xlink:href="#DejaVuSans-65" transform="translate(299.072266 0)"/>
      <use xlink:href="#DejaVuSans-72" transform="translate(360.595703 0)"/>
      <use xlink:href="#DejaVuSans-20" transform="translate(401.708984 0)"/>
      <use xlink:href="#DejaVuSans-6f" transform="translate(433.496094 0)"/>
      <use xlink:href="#DejaVuSans-66" transform="translate(494.677734 0)"/>
      <use xlink:href="#DejaVuSans-20" transform="translate(529.882812 0)"/>
      <use xlink:href="#DejaVuSans-74" transform="translate(561.669922 0)"/>
      <use xlink:href="#DejaVuSans-65" transform="translate(600.878906 0)"/>
      <use xlink:href="#DejaVuSans-72" transform="translate(662.402344 0)"/>
      <use xlink:href="#DejaVuSans-6d" transform="translate(701.765625 0)"/>
      <use xlink:href="#DejaVuSans-73" transform="translate(799.177734 0)"/>
     </g>
    </g>
   </g>
   <g id="matplotlib.axis_2">
    <g id="ytick_1">
     <g id="line2d_17">
      <path d="M 57.6 295.488 
L 414.72 295.488 
" clip-path="url(#pacc09d9d60)" style="fill: none; stroke: #b0b0b0; stroke-width: 0.8; stroke-linecap: square"/>
     </g>
     <g id="line2d_18">
      <defs>
       <path id="m609c255184" d="M 0 0 
L -3.5 0 
" style="stroke: #000000; stroke-width: 0.8"/>
      </defs>
      <g>
       <use xlink:href="#m609c255184" x="57.6" y="295.488" style="stroke: #000000; stroke-width: 0.8"/>
      </g>
     </g>
     <g id="text_10">
      <!-- 0.0 -->
      <g transform="translate(34.696875 299.287219) scale(0.1 -0.1)">
       <defs>
        <path id="DejaVuSans-2e" d="M 684 794 
L 1344 794 
L 1344 0 
L 684 0 
L 684 794 
z
" transform="scale(0.015625)"/>
       </defs>
       <use xlink:href="#DejaVuSans-30"/>
       <use xlink:href="#DejaVuSans-2e" transform="translate(63.623047 0)"/>
       <use xlink:href="#DejaVuSans-30" transform="translate(95.410156 0)"/>
      </g>
     </g>
    </g>
    <g id="ytick_2">
     <g id="line2d_19">
      <path d="M 57.6 247.104 
L 414.72 247.104 
" clip-path="url(#pacc09d9d60)" style="fill: none; stroke: #b0b0b0; stroke-width: 0.8; stroke-linecap: square"/>
     </g>
     <g id="line2d_20">
      <g>
       <use xlink:href="#m609c255184" x="57.6" y="247.104" style="stroke: #000000; stroke-width: 0.8"/>
      </g>
     </g>
     <g id="text_11">
      <!-- 0.2 -->
      <g transform="translate(34.696875 250.903219) scale(0.1 -0.1)">
       <use xlink:href="#DejaVuSans-30"/>
       <use xlink:href="#DejaVuSans-2e" transform="translate(63.623047 0)"/>
       <use xlink:href="#DejaVuSans-32" transform="translate(95.410156 0)"/>
      </g>
     </g>
    </g>
    <g id="ytick_3">
     <g id="line2d_21">
      <path d="M 57.6 198.72 
L 414.72 198.72 
" clip-path="url(#pacc09d9d60)" style="fill: none; stroke: #b0b0b0; stroke-width: 0.8; stroke-linecap: square"/>
     </g>
     <g id="line2d_22">
      <g>
       <use xlink:href="#m609c255184" x="57.6" y="198.72" style="stroke: #000000; stroke-width: 0.8"/>
      </g>
     </g>
     <g id="text_12">
      <!-- 0.4 -->
      <g transform="translate(34.696875 202.519219) scale(0.1 -0.1)">
       <defs>
        <path id="DejaVuSans-34" d="M 2419 4116 
L 825 1625 
L 2419 1625 
L 2419 4116 
z
M 2253 4666 
L 3047 4666 
L 3047 1625 
L 3713 1625 
L 3713 1100 
L 3047 1100 
L 3047 0 
L 2419 0 
L 2419 1100 
L 313 1100 
L 313 1709 
L 2253 4666 
z
" transform="scale(0.015625)"/>
       </defs>
       <use xlink:href="#DejaVuSans-30"/>
       <use xlink:href="#DejaVuSans-2e" transform="translate(63.623047 0)"/>
       <use xlink:href="#DejaVuSans-34" transform="translate(95.410156 0)"/>
      </g>
     </g>
    </g>
    <g id="ytick_4">
     <g id="line2d_23">
      <path d="M 57.6 150.336 
L 414.72 150.336 
" clip-path="url(#pacc09d9d60)" style="fill: none; stroke: #b0b0b0; stroke-width: 0.8; stroke-linecap: square"/>
     </g>
     <g id="line2d_24">
      <g>
       <use xlink:href="#m609c255184" x="57.6" y="150.336" style="stroke: #000000; stroke-width: 0.8"/>
      </g>
     </g>
     <g id="text_13">
      <!-- 0.6 -->
      <g transform="translate(34.696875 154.135219) scale(0.1 -0.1)">
       <defs>
        <path id="DejaVuSans-36" d="M 2113 2584 
Q 1688 2584 1439 2293 
Q 1191 2003 1191 1497 
Q 1191 994 1439 701 
Q 1688 409 2113 409 
Q 2538 409 2786 701 
Q 3034 994 3034 1497 
Q 3034 2003 2786 2293 
Q 2538 2584 2113 2584 
z
M 3366 4563 
L 3366 3988 
Q 3128 4100 2886 4159 
Q 2644 4219 2406 4219 
Q 1781 4219 1451 3797 
Q 1122 3375 1075 2522 
Q 1259 2794 1537 2939 
Q 1816 3084 2150 3084 
Q 2853 3084 3261 2657 
Q 3669 2231 3669 1497 
Q 3669 778 3244 343 
Q 2819 -91 2113 -91 
Q 1303 -91 875 529 
Q 447 1150 447 2328 
Q 447 3434 972 4092 
Q 1497 4750 2381 4750 
Q 2619 4750 2861 4703 
Q 3103 4656 3366 4563 
z
" transform="scale(0.015625)"/>
       </defs>
       <use xlink:href="#DejaVuSans-30"/>
       <use xlink:href="#DejaVuSans-2e" transform="translate(63.623047 0)"/>
       <use xlink:href="#DejaVuSans-36" transform="translate(95.410156 0)"/>
      </g>
     </g>
    </g>
    <g id="ytick_5">
     <g id="line2d_25">
      <path d="M 57.6 101.952 
L 414.72 101.952 
" clip-path="url(#pacc09d9d60)" style="fill: none; stroke: #b0b0b0; stroke-width: 0.8; stroke-linecap: square"/>
     </g>
     <g id="line2d_26">
      <g>
       <use xlink:href="#m609c255184" x="57.6" y="101.952" style="stroke: #000000; stroke-width: 0.8"/>
      </g>
     </g>
     <g id="text_14">
      <!-- 0.8 -->
      <g transform="translate(34.696875 105.751219) scale(0.1 -0.1)">
       <defs>
        <path id="DejaVuSans-38" d="M 2034 2216 
Q 1584 2216 1326 1975 
Q 1069 1734 1069 1313 
Q 1069 891 1326 650 
Q 1584 409 2034 409 
Q 2484 409 2743 651 
Q 3003 894 3003 1313 
Q 3003 1734 2745 1975 
Q 2488 2216 2034 2216 
z
M 1403 2484 
Q 997 2584 770 2862 
Q 544 3141 544 3541 
Q 544 4100 942 4425 
Q 1341 4750 2034 4750 
Q 2731 4750 3128 4425 
Q 3525 4100 3525 3541 
Q 3525 3141 3298 2862 
Q 3072 2584 2669 2484 
Q 3125 2378 3379 2068 
Q 3634 1759 3634 1313 
Q 3634 634 3220 271 
Q 2806 -91 2034 -91 
Q 1263 -91 848 271 
Q 434 634 434 1313 
Q 434 1759 690 2068 
Q 947 2378 1403 2484 
z
M 1172 3481 
Q 1172 3119 1398 2916 
Q 1625 2713 2034 2713 
Q 2441 2713 2670 2916 
Q 2900 3119 2900 3481 
Q 2900 3844 2670 4047 
Q 2441 4250 2034 4250 
Q 1625 4250 1398 4047 
Q 1172 3844 1172 3481 
z
" transform="scale(0.015625)"/>
       </defs>
       <use xlink:href="#DejaVuSans-30"/>
       <use xlink:href="#DejaVuSans-2e" transform="translate(63.623047 0)"/>
       <use xlink:href="#DejaVuSans-38" transform="translate(95.410156 0)"/>
      </g>
     </g>
    </g>
    <g id="ytick_6">
     <g id="line2d_27">
      <path d="M 57.6 53.568 
L 414.72 53.568 
" clip-path="url(#pacc09d9d60)" style="fill: none; stroke: #b0b0b0; stroke-width: 0.8; stroke-linecap: square"/>
     </g>
     <g id="line2d_28">
      <g>
       <use xlink:href="#m609c255184" x="57.6" y="53.568" style="stroke: #000000; stroke-width: 0.8"/>
      </g>
     </g>
     <g id="text_15">
      <!-- 1.0 -->
      <g transform="translate(34.696875 57.367219) scale(0.1 -0.1)">
       <use xlink:href="#DejaVuSans-31"/>
       <use xlink:href="#DejaVuSans-2e" transform="translate(63.623047 0)"/>
       <use xlink:href="#DejaVuSans-30" transform="translate(95.410156 0)"/>
      </g>
     </g>
    </g>
    <g id="text_16">
     <!-- Cumulated normalized weight -->
     <g transform="translate(28.617187 249.710812) rotate(-90) scale(0.1 -0.1)">
      <defs>
       <path id="DejaVuSans-43" d="M 4122 4306 
L 4122 3641 
Q 3803 3938 3442 4084 
Q 3081 4231 2675 4231 
Q 1875 4231 1450 3742 
Q 1025 3253 1025 2328 
Q 1025 1406 1450 917 
Q 1875 428 2675 428 
Q 3081 428 3442 575 
Q 3803 722 4122 1019 
L 4122 359 
Q 3791 134 3420 21 
Q 3050 -91 2638 -91 
Q 1578 -91 968 557 
Q 359 1206 359 2328 
Q 359 3453 968 4101 
Q 1578 4750 2638 4750 
Q 3056 4750 3426 4639 
Q 3797 4528 4122 4306 
z
" transform="scale(0.015625)"/>
       <path id="DejaVuSans-6c" d="M 603 4863 
L 1178 4863 
L 1178 0 
L 603 0 
L 603 4863 
z
" transform="scale(0.015625)"/>
       <path id="DejaVuSans-61" d="M 2194 1759 
Q 1497 1759 1228 1600 
Q 959 1441 959 1056 
Q 959 750 1161 570 
Q 1363 391 1709 391 
Q 2188 391 2477 730 
Q 2766 1069 2766 1631 
L 2766 1759 
L 2194 1759 
z
M 3341 1997 
L 3341 0 
L 2766 0 
L 2766 531 
Q 2569 213 2275 61 
Q 1981 -91 1556 -91 
Q 1019 -91 701 211 
Q 384 513 384 1019 
Q 384 1609 779 1909 
Q 1175 2209 1959 2209 
L 2766 2209 
L 2766 2266 
Q 2766 2663 2505 2880 
Q 2244 3097 1772 3097 
Q 1472 3097 1187 3025 
Q 903 2953 641 2809 
L 641 3341 
Q 956 3463 1253 3523 
Q 1550 3584 1831 3584 
Q 2591 3584 2966 3190 
Q 3341 2797 3341 1997 
z
" transform="scale(0.015625)"/>
       <path id="DejaVuSans-64" d="M 2906 2969 
L 2906 4863 
L 3481 4863 
L 3481 0 
L 2906 0 
L 2906 525 
Q 2725 213 2448 61 
Q 2172 -91 1784 -91 
Q 1150 -91 751 415 
Q 353 922 353 1747 
Q 353 2572 751 3078 
Q 1150 3584 1784 3584 
Q 2172 3584 2448 3432 
Q 2725 3281 2906 2969 
z
M 947 1747 
Q 947 1113 1208 752 
Q 1469 391 1925 391 
Q 2381 391 2643 752 
Q 2906 1113 2906 1747 
Q 2906 2381 2643 2742 
Q 2381 3103 1925 3103 
Q 1469 3103 1208 2742 
Q 947 2381 947 1747 
z
" transform="scale(0.015625)"/>
       <path id="DejaVuSans-6e" d="M 3513 2113 
L 3513 0 
L 2938 0 
L 2938 2094 
Q 2938 2591 2744 2837 
Q 2550 3084 2163 3084 
Q 1697 3084 1428 2787 
Q 1159 2491 1159 1978 
L 1159 0 
L 581 0 
L 581 3500 
L 1159 3500 
L 1159 2956 
Q 1366 3272 1645 3428 
Q 1925 3584 2291 3584 
Q 2894 3584 3203 3211 
Q 3513 2838 3513 2113 
z
" transform="scale(0.015625)"/>
       <path id="DejaVuSans-69" d="M 603 3500 
L 1178 3500 
L 1178 0 
L 603 0 
L 603 3500 
z
M 603 4863 
L 1178 4863 
L 1178 4134 
L 603 4134 
L 603 4863 
z
" transform="scale(0.015625)"/>
       <path id="DejaVuSans-7a" d="M 353 3500 
L 3084 3500 
L 3084 2975 
L 922 459 
L 3084 459 
L 3084 0 
L 275 0 
L 275 525 
L 2438 3041 
L 353 3041 
L 353 3500 
z
" transform="scale(0.015625)"/>
       <path id="DejaVuSans-77" d="M 269 3500 
L 844 3500 
L 1563 769 
L 2278 3500 
L 2956 3500 
L 3675 769 
L 4391 3500 
L 4966 3500 
L 4050 0 
L 3372 0 
L 2619 2869 
L 1863 0 
L 1184 0 
L 269 3500 
z
" transform="scale(0.015625)"/>
       <path id="DejaVuSans-67" d="M 2906 1791 
Q 2906 2416 2648 2759 
Q 2391 3103 1925 3103 
Q 1463 3103 1205 2759 
Q 947 2416 947 1791 
Q 947 1169 1205 825 
Q 1463 481 1925 481 
Q 2391 481 2648 825 
Q 2906 1169 2906 1791 
z
M 3481 434 
Q 3481 -459 3084 -895 
Q 2688 -1331 1869 -1331 
Q 1566 -1331 1297 -1286 
Q 1028 -1241 775 -1147 
L 775 -588 
Q 1028 -725 1275 -790 
Q 1522 -856 1778 -856 
Q 2344 -856 2625 -561 
Q 2906 -266 2906 331 
L 2906 616 
Q 2728 306 2450 153 
Q 2172 0 1784 0 
Q 1141 0 747 490 
Q 353 981 353 1791 
Q 353 2603 747 3093 
Q 1141 3584 1784 3584 
Q 2172 3584 2450 3431 
Q 2728 3278 2906 2969 
L 2906 3500 
L 3481 3500 
L 3481 434 
z
" transform="scale(0.015625)"/>
       <path id="DejaVuSans-68" d="M 3513 2113 
L 3513 0 
L 2938 0 
L 2938 2094 
Q 2938 2591 2744 2837 
Q 2550 3084 2163 3084 
Q 1697 3084 1428 2787 
Q 1159 2491 1159 1978 
L 1159 0 
L 581 0 
L 581 4863 
L 1159 4863 
L 1159 2956 
Q 1366 3272 1645 3428 
Q 1925 3584 2291 3584 
Q 2894 3584 3203 3211 
Q 3513 2838 3513 2113 
z
" transform="scale(0.015625)"/>
      </defs>
      <use xlink:href="#DejaVuSans-43"/>
      <use xlink:href="#DejaVuSans-75" transform="translate(69.824219 0)"/>
      <use xlink:href="#DejaVuSans-6d" transform="translate(133.203125 0)"/>
      <use xlink:href="#DejaVuSans-75" transform="translate(230.615234 0)"/>
      <use xlink:href="#DejaVuSans-6c" transform="translate(293.994141 0)"/>
      <use xlink:href="#DejaVuSans-61" transform="translate(321.777344 0)"/>
      <use xlink:href="#DejaVuSans-74" transform="translate(383.056641 0)"/>
      <use xlink:href="#DejaVuSans-65" transform="translate(422.265625 0)"/>
      <use xlink:href="#DejaVuSans-64" transform="translate(483.789062 0)"/>
      <use xlink:href="#DejaVuSans-20" transform="translate(547.265625 0)"/>
      <use xlink:href="#DejaVuSans-6e" transform="translate(579.052734 0)"/>
      <use xlink:href="#DejaVuSans-6f" transform="translate(642.431641 0)"/>
      <use xlink:href="#DejaVuSans-72" transform="translate(703.613281 0)"/>
      <use xlink:href="#DejaVuSans-6d" transform="translate(742.976562 0)"/>
      <use xlink:href="#DejaVuSans-61" transform="translate(840.388672 0)"/>
      <use xlink:href="#DejaVuSans-6c" transform="translate(901.667969 0)"/>
      <use xlink:href="#DejaVuSans-69" transform="translate(929.451172 0)"/>
      <use xlink:href="#DejaVuSans-7a" transform="translate(957.234375 0)"/>
      <use xlink:href="#DejaVuSans-65" transform="translate(1009.724609 0)"/>
      <use xlink:href="#DejaVuSans-64" transform="translate(1071.248047 0)"/>
      <use xlink:href="#DejaVuSans-20" transform="translate(1134.724609 0)"/>
      <use xlink:href="#DejaVuSans-77" transform="translate(1166.511719 0)"/>
      <use xlink:href="#DejaVuSans-65" transform="translate(1248.298828 0)"/>
      <use xlink:href="#DejaVuSans-69" transform="translate(1309.822266 0)"/>
      <use xlink:href="#DejaVuSans-67" transform="translate(1337.605469 0)"/>
      <use xlink:href="#DejaVuSans-68" transform="translate(1401.082031 0)"/>
      <use xlink:href="#DejaVuSans-74" transform="translate(1464.460938 0)"/>
     </g>
    </g>
   </g>
   <g id="line2d_29">
    <path d="M 73.832727 295.488 
L 77.361581 268.072547 
L 80.890435 245.823694 
L 84.419289 229.406821 
L 86.183715 225.043688 
L 93.241423 209.812144 
L 100.29913 195.822617 
L 105.592411 185.879684 
L 116.178972 166.64611 
L 119.707826 160.433232 
L 125.001107 152.413349 
L 130.294387 144.742858 
L 135.587668 137.979472 
L 137.352095 135.841116 
L 144.409802 130.958507 
L 154.996364 124.883509 
L 165.582925 119.047441 
L 186.756047 108.383214 
L 197.342609 103.84208 
L 204.400316 101.071257 
L 230.866719 91.154739 
L 266.155257 78.323549 
L 278.506245 74.145136 
L 299.679368 67.177275 
L 315.559209 64.063611 
L 334.967905 60.667653 
L 356.141028 57.120504 
L 372.02087 55.06614 
L 382.607431 54.193229 
L 391.429565 53.621646 
L 398.487273 53.568 
L 398.487273 53.568 
" clip-path="url(#pacc09d9d60)" style="fill: none; stroke-dasharray: 5.55,2.4; stroke-dashoffset: 0; stroke: #1f77b4; stroke-width: 1.5"/>
    <defs>
     <path id="m32928d0940" d="M -3 3 
L 3 -3 
M -3 -3 
L 3 3 
" style="stroke: #1f77b4"/>
    </defs>
    <g clip-path="url(#pacc09d9d60)">
     <use xlink:href="#m32928d0940" x="73.832727" y="295.488" style="fill: #1f77b4; stroke: #1f77b4"/>
     <use xlink:href="#m32928d0940" x="75.597154" y="281.780274" style="fill: #1f77b4; stroke: #1f77b4"/>
     <use xlink:href="#m32928d0940" x="77.361581" y="268.072547" style="fill: #1f77b4; stroke: #1f77b4"/>
     <use xlink:href="#m32928d0940" x="79.126008" y="256.948121" style="fill: #1f77b4; stroke: #1f77b4"/>
     <use xlink:href="#m32928d0940" x="80.890435" y="245.823694" style="fill: #1f77b4; stroke: #1f77b4"/>
     <use xlink:href="#m32928d0940" x="82.654862" y="237.615258" style="fill: #1f77b4; stroke: #1f77b4"/>
     <use xlink:href="#m32928d0940" x="84.419289" y="229.406821" style="fill: #1f77b4; stroke: #1f77b4"/>
     <use xlink:href="#m32928d0940" x="86.183715" y="225.043688" style="fill: #1f77b4; stroke: #1f77b4"/>
     <use xlink:href="#m32928d0940" x="87.948142" y="221.22233" style="fill: #1f77b4; stroke: #1f77b4"/>
     <use xlink:href="#m32928d0940" x="89.712569" y="217.400971" style="fill: #1f77b4; stroke: #1f77b4"/>
     <use xlink:href="#m32928d0940" x="91.476996" y="213.606558" style="fill: #1f77b4; stroke: #1f77b4"/>
     <use xlink:href="#m32928d0940" x="93.241423" y="209.812144" style="fill: #1f77b4; stroke: #1f77b4"/>
     <use xlink:href="#m32928d0940" x="95.00585" y="206.26231" style="fill: #1f77b4; stroke: #1f77b4"/>
     <use xlink:href="#m32928d0940" x="96.770277" y="202.723243" style="fill: #1f77b4; stroke: #1f77b4"/>
     <use xlink:href="#m32928d0940" x="98.534704" y="199.184177" style="fill: #1f77b4; stroke: #1f77b4"/>
     <use xlink:href="#m32928d0940" x="100.29913" y="195.822617" style="fill: #1f77b4; stroke: #1f77b4"/>
     <use xlink:href="#m32928d0940" x="102.063557" y="192.461058" style="fill: #1f77b4; stroke: #1f77b4"/>
     <use xlink:href="#m32928d0940" x="103.827984" y="189.105043" style="fill: #1f77b4; stroke: #1f77b4"/>
     <use xlink:href="#m32928d0940" x="105.592411" y="185.879684" style="fill: #1f77b4; stroke: #1f77b4"/>
     <use xlink:href="#m32928d0940" x="107.356838" y="182.654325" style="fill: #1f77b4; stroke: #1f77b4"/>
     <use xlink:href="#m32928d0940" x="109.121265" y="179.434869" style="fill: #1f77b4; stroke: #1f77b4"/>
     <use xlink:href="#m32928d0940" x="110.885692" y="176.22185" style="fill: #1f77b4; stroke: #1f77b4"/>
     <use xlink:href="#m32928d0940" x="112.650119" y="173.008832" style="fill: #1f77b4; stroke: #1f77b4"/>
     <use xlink:href="#m32928d0940" x="114.414545" y="169.827471" style="fill: #1f77b4; stroke: #1f77b4"/>
     <use xlink:href="#m32928d0940" x="116.178972" y="166.64611" style="fill: #1f77b4; stroke: #1f77b4"/>
     <use xlink:href="#m32928d0940" x="117.943399" y="163.539671" style="fill: #1f77b4; stroke: #1f77b4"/>
     <use xlink:href="#m32928d0940" x="119.707826" y="160.433232" style="fill: #1f77b4; stroke: #1f77b4"/>
     <use xlink:href="#m32928d0940" x="121.472253" y="157.70189" style="fill: #1f77b4; stroke: #1f77b4"/>
     <use xlink:href="#m32928d0940" x="123.23668" y="154.970548" style="fill: #1f77b4; stroke: #1f77b4"/>
     <use xlink:href="#m32928d0940" x="125.001107" y="152.413349" style="fill: #1f77b4; stroke: #1f77b4"/>
     <use xlink:href="#m32928d0940" x="126.765534" y="149.85615" style="fill: #1f77b4; stroke: #1f77b4"/>
     <use xlink:href="#m32928d0940" x="128.52996" y="147.299504" style="fill: #1f77b4; stroke: #1f77b4"/>
     <use xlink:href="#m32928d0940" x="130.294387" y="144.742858" style="fill: #1f77b4; stroke: #1f77b4"/>
     <use xlink:href="#m32928d0940" x="132.058814" y="142.430343" style="fill: #1f77b4; stroke: #1f77b4"/>
     <use xlink:href="#m32928d0940" x="133.823241" y="140.117828" style="fill: #1f77b4; stroke: #1f77b4"/>
     <use xlink:href="#m32928d0940" x="135.587668" y="137.979472" style="fill: #1f77b4; stroke: #1f77b4"/>
     <use xlink:href="#m32928d0940" x="137.352095" y="135.841116" style="fill: #1f77b4; stroke: #1f77b4"/>
     <use xlink:href="#m32928d0940" x="139.116522" y="134.620464" style="fill: #1f77b4; stroke: #1f77b4"/>
     <use xlink:href="#m32928d0940" x="140.880949" y="133.399812" style="fill: #1f77b4; stroke: #1f77b4"/>
     <use xlink:href="#m32928d0940" x="142.645375" y="132.17916" style="fill: #1f77b4; stroke: #1f77b4"/>
     <use xlink:href="#m32928d0940" x="144.409802" y="130.958507" style="fill: #1f77b4; stroke: #1f77b4"/>
     <use xlink:href="#m32928d0940" x="146.174229" y="129.930692" style="fill: #1f77b4; stroke: #1f77b4"/>
     <use xlink:href="#m32928d0940" x="147.938656" y="128.902876" style="fill: #1f77b4; stroke: #1f77b4"/>
     <use xlink:href="#m32928d0940" x="149.703083" y="127.87506" style="fill: #1f77b4; stroke: #1f77b4"/>
     <use xlink:href="#m32928d0940" x="151.46751" y="126.847244" style="fill: #1f77b4; stroke: #1f77b4"/>
     <use xlink:href="#m32928d0940" x="153.231937" y="125.865377" style="fill: #1f77b4; stroke: #1f77b4"/>
     <use xlink:href="#m32928d0940" x="154.996364" y="124.883509" style="fill: #1f77b4; stroke: #1f77b4"/>
     <use xlink:href="#m32928d0940" x="156.760791" y="123.901641" style="fill: #1f77b4; stroke: #1f77b4"/>
     <use xlink:href="#m32928d0940" x="158.525217" y="122.919773" style="fill: #1f77b4; stroke: #1f77b4"/>
     <use xlink:href="#m32928d0940" x="160.289644" y="121.95169" style="fill: #1f77b4; stroke: #1f77b4"/>
     <use xlink:href="#m32928d0940" x="162.054071" y="120.983607" style="fill: #1f77b4; stroke: #1f77b4"/>
     <use xlink:href="#m32928d0940" x="163.818498" y="120.015524" style="fill: #1f77b4; stroke: #1f77b4"/>
     <use xlink:href="#m32928d0940" x="165.582925" y="119.047441" style="fill: #1f77b4; stroke: #1f77b4"/>
     <use xlink:href="#m32928d0940" x="167.347352" y="118.148835" style="fill: #1f77b4; stroke: #1f77b4"/>
     <use xlink:href="#m32928d0940" x="169.111779" y="117.25023" style="fill: #1f77b4; stroke: #1f77b4"/>
     <use xlink:href="#m32928d0940" x="170.876206" y="116.351624" style="fill: #1f77b4; stroke: #1f77b4"/>
     <use xlink:href="#m32928d0940" x="172.640632" y="115.453019" style="fill: #1f77b4; stroke: #1f77b4"/>
     <use xlink:href="#m32928d0940" x="174.405059" y="114.554413" style="fill: #1f77b4; stroke: #1f77b4"/>
     <use xlink:href="#m32928d0940" x="176.169486" y="113.655808" style="fill: #1f77b4; stroke: #1f77b4"/>
     <use xlink:href="#m32928d0940" x="177.933913" y="112.757203" style="fill: #1f77b4; stroke: #1f77b4"/>
     <use xlink:href="#m32928d0940" x="179.69834" y="111.858597" style="fill: #1f77b4; stroke: #1f77b4"/>
     <use xlink:href="#m32928d0940" x="181.462767" y="110.989751" style="fill: #1f77b4; stroke: #1f77b4"/>
     <use xlink:href="#m32928d0940" x="183.227194" y="110.120905" style="fill: #1f77b4; stroke: #1f77b4"/>
     <use xlink:href="#m32928d0940" x="184.991621" y="109.25206" style="fill: #1f77b4; stroke: #1f77b4"/>
     <use xlink:href="#m32928d0940" x="186.756047" y="108.383214" style="fill: #1f77b4; stroke: #1f77b4"/>
     <use xlink:href="#m32928d0940" x="188.520474" y="107.60628" style="fill: #1f77b4; stroke: #1f77b4"/>
     <use xlink:href="#m32928d0940" x="190.284901" y="106.829346" style="fill: #1f77b4; stroke: #1f77b4"/>
     <use xlink:href="#m32928d0940" x="192.049328" y="106.052412" style="fill: #1f77b4; stroke: #1f77b4"/>
     <use xlink:href="#m32928d0940" x="193.813755" y="105.275478" style="fill: #1f77b4; stroke: #1f77b4"/>
     <use xlink:href="#m32928d0940" x="195.578182" y="104.558779" style="fill: #1f77b4; stroke: #1f77b4"/>
     <use xlink:href="#m32928d0940" x="197.342609" y="103.84208" style="fill: #1f77b4; stroke: #1f77b4"/>
     <use xlink:href="#m32928d0940" x="199.107036" y="103.125381" style="fill: #1f77b4; stroke: #1f77b4"/>
     <use xlink:href="#m32928d0940" x="200.871462" y="102.408681" style="fill: #1f77b4; stroke: #1f77b4"/>
     <use xlink:href="#m32928d0940" x="202.635889" y="101.739969" style="fill: #1f77b4; stroke: #1f77b4"/>
     <use xlink:href="#m32928d0940" x="204.400316" y="101.071257" style="fill: #1f77b4; stroke: #1f77b4"/>
     <use xlink:href="#m32928d0940" x="206.164743" y="100.402545" style="fill: #1f77b4; stroke: #1f77b4"/>
     <use xlink:href="#m32928d0940" x="207.92917" y="99.733832" style="fill: #1f77b4; stroke: #1f77b4"/>
     <use xlink:href="#m32928d0940" x="209.693597" y="99.071991" style="fill: #1f77b4; stroke: #1f77b4"/>
     <use xlink:href="#m32928d0940" x="211.458024" y="98.41015" style="fill: #1f77b4; stroke: #1f77b4"/>
     <use xlink:href="#m32928d0940" x="213.222451" y="97.748309" style="fill: #1f77b4; stroke: #1f77b4"/>
     <use xlink:href="#m32928d0940" x="214.986877" y="97.086468" style="fill: #1f77b4; stroke: #1f77b4"/>
     <use xlink:href="#m32928d0940" x="216.751304" y="96.425909" style="fill: #1f77b4; stroke: #1f77b4"/>
     <use xlink:href="#m32928d0940" x="218.515731" y="95.76535" style="fill: #1f77b4; stroke: #1f77b4"/>
     <use xlink:href="#m32928d0940" x="220.280158" y="95.104792" style="fill: #1f77b4; stroke: #1f77b4"/>
     <use xlink:href="#m32928d0940" x="222.044585" y="94.444233" style="fill: #1f77b4; stroke: #1f77b4"/>
     <use xlink:href="#m32928d0940" x="223.809012" y="93.783674" style="fill: #1f77b4; stroke: #1f77b4"/>
     <use xlink:href="#m32928d0940" x="225.573439" y="93.123115" style="fill: #1f77b4; stroke: #1f77b4"/>
     <use xlink:href="#m32928d0940" x="227.337866" y="92.462557" style="fill: #1f77b4; stroke: #1f77b4"/>
     <use xlink:href="#m32928d0940" x="229.102292" y="91.801998" style="fill: #1f77b4; stroke: #1f77b4"/>
     <use xlink:href="#m32928d0940" x="230.866719" y="91.154739" style="fill: #1f77b4; stroke: #1f77b4"/>
     <use xlink:href="#m32928d0940" x="232.631146" y="90.507479" style="fill: #1f77b4; stroke: #1f77b4"/>
     <use xlink:href="#m32928d0940" x="234.395573" y="89.860219" style="fill: #1f77b4; stroke: #1f77b4"/>
     <use xlink:href="#m32928d0940" x="236.16" y="89.21296" style="fill: #1f77b4; stroke: #1f77b4"/>
     <use xlink:href="#m32928d0940" x="237.924427" y="88.565813" style="fill: #1f77b4; stroke: #1f77b4"/>
     <use xlink:href="#m32928d0940" x="239.688854" y="87.918666" style="fill: #1f77b4; stroke: #1f77b4"/>
     <use xlink:href="#m32928d0940" x="241.453281" y="87.271518" style="fill: #1f77b4; stroke: #1f77b4"/>
     <use xlink:href="#m32928d0940" x="243.217708" y="86.624371" style="fill: #1f77b4; stroke: #1f77b4"/>
     <use xlink:href="#m32928d0940" x="244.982134" y="85.978158" style="fill: #1f77b4; stroke: #1f77b4"/>
     <use xlink:href="#m32928d0940" x="246.746561" y="85.331945" style="fill: #1f77b4; stroke: #1f77b4"/>
     <use xlink:href="#m32928d0940" x="248.510988" y="84.685732" style="fill: #1f77b4; stroke: #1f77b4"/>
     <use xlink:href="#m32928d0940" x="250.275415" y="84.039519" style="fill: #1f77b4; stroke: #1f77b4"/>
     <use xlink:href="#m32928d0940" x="252.039842" y="83.393306" style="fill: #1f77b4; stroke: #1f77b4"/>
     <use xlink:href="#m32928d0940" x="253.804269" y="82.747093" style="fill: #1f77b4; stroke: #1f77b4"/>
     <use xlink:href="#m32928d0940" x="255.568696" y="82.10088" style="fill: #1f77b4; stroke: #1f77b4"/>
     <use xlink:href="#m32928d0940" x="257.333123" y="81.454667" style="fill: #1f77b4; stroke: #1f77b4"/>
     <use xlink:href="#m32928d0940" x="259.097549" y="80.82445" style="fill: #1f77b4; stroke: #1f77b4"/>
     <use xlink:href="#m32928d0940" x="260.861976" y="80.194233" style="fill: #1f77b4; stroke: #1f77b4"/>
     <use xlink:href="#m32928d0940" x="262.626403" y="79.564016" style="fill: #1f77b4; stroke: #1f77b4"/>
     <use xlink:href="#m32928d0940" x="264.39083" y="78.933799" style="fill: #1f77b4; stroke: #1f77b4"/>
     <use xlink:href="#m32928d0940" x="266.155257" y="78.323549" style="fill: #1f77b4; stroke: #1f77b4"/>
     <use xlink:href="#m32928d0940" x="267.919684" y="77.7133" style="fill: #1f77b4; stroke: #1f77b4"/>
     <use xlink:href="#m32928d0940" x="269.684111" y="77.103051" style="fill: #1f77b4; stroke: #1f77b4"/>
     <use xlink:href="#m32928d0940" x="271.448538" y="76.492801" style="fill: #1f77b4; stroke: #1f77b4"/>
     <use xlink:href="#m32928d0940" x="273.212964" y="75.905885" style="fill: #1f77b4; stroke: #1f77b4"/>
     <use xlink:href="#m32928d0940" x="274.977391" y="75.318969" style="fill: #1f77b4; stroke: #1f77b4"/>
     <use xlink:href="#m32928d0940" x="276.741818" y="74.732052" style="fill: #1f77b4; stroke: #1f77b4"/>
     <use xlink:href="#m32928d0940" x="278.506245" y="74.145136" style="fill: #1f77b4; stroke: #1f77b4"/>
     <use xlink:href="#m32928d0940" x="280.270672" y="73.563741" style="fill: #1f77b4; stroke: #1f77b4"/>
     <use xlink:href="#m32928d0940" x="282.035099" y="72.982346" style="fill: #1f77b4; stroke: #1f77b4"/>
     <use xlink:href="#m32928d0940" x="283.799526" y="72.400951" style="fill: #1f77b4; stroke: #1f77b4"/>
     <use xlink:href="#m32928d0940" x="285.563953" y="71.819556" style="fill: #1f77b4; stroke: #1f77b4"/>
     <use xlink:href="#m32928d0940" x="287.328379" y="71.239271" style="fill: #1f77b4; stroke: #1f77b4"/>
     <use xlink:href="#m32928d0940" x="289.092806" y="70.658986" style="fill: #1f77b4; stroke: #1f77b4"/>
     <use xlink:href="#m32928d0940" x="290.857233" y="70.078701" style="fill: #1f77b4; stroke: #1f77b4"/>
     <use xlink:href="#m32928d0940" x="292.62166" y="69.498416" style="fill: #1f77b4; stroke: #1f77b4"/>
     <use xlink:href="#m32928d0940" x="294.386087" y="68.918131" style="fill: #1f77b4; stroke: #1f77b4"/>
     <use xlink:href="#m32928d0940" x="296.150514" y="68.337846" style="fill: #1f77b4; stroke: #1f77b4"/>
     <use xlink:href="#m32928d0940" x="297.914941" y="67.757561" style="fill: #1f77b4; stroke: #1f77b4"/>
     <use xlink:href="#m32928d0940" x="299.679368" y="67.177275" style="fill: #1f77b4; stroke: #1f77b4"/>
     <use xlink:href="#m32928d0940" x="301.443794" y="66.82196" style="fill: #1f77b4; stroke: #1f77b4"/>
     <use xlink:href="#m32928d0940" x="303.208221" y="66.466645" style="fill: #1f77b4; stroke: #1f77b4"/>
     <use xlink:href="#m32928d0940" x="304.972648" y="66.11133" style="fill: #1f77b4; stroke: #1f77b4"/>
     <use xlink:href="#m32928d0940" x="306.737075" y="65.756015" style="fill: #1f77b4; stroke: #1f77b4"/>
     <use xlink:href="#m32928d0940" x="308.501502" y="65.412494" style="fill: #1f77b4; stroke: #1f77b4"/>
     <use xlink:href="#m32928d0940" x="310.265929" y="65.068973" style="fill: #1f77b4; stroke: #1f77b4"/>
     <use xlink:href="#m32928d0940" x="312.030356" y="64.725453" style="fill: #1f77b4; stroke: #1f77b4"/>
     <use xlink:href="#m32928d0940" x="313.794783" y="64.381932" style="fill: #1f77b4; stroke: #1f77b4"/>
     <use xlink:href="#m32928d0940" x="315.559209" y="64.063611" style="fill: #1f77b4; stroke: #1f77b4"/>
     <use xlink:href="#m32928d0940" x="317.323636" y="63.745291" style="fill: #1f77b4; stroke: #1f77b4"/>
     <use xlink:href="#m32928d0940" x="319.088063" y="63.426971" style="fill: #1f77b4; stroke: #1f77b4"/>
     <use xlink:href="#m32928d0940" x="320.85249" y="63.10865" style="fill: #1f77b4; stroke: #1f77b4"/>
     <use xlink:href="#m32928d0940" x="322.616917" y="62.801299" style="fill: #1f77b4; stroke: #1f77b4"/>
     <use xlink:href="#m32928d0940" x="324.381344" y="62.493948" style="fill: #1f77b4; stroke: #1f77b4"/>
     <use xlink:href="#m32928d0940" x="326.145771" y="62.186597" style="fill: #1f77b4; stroke: #1f77b4"/>
     <use xlink:href="#m32928d0940" x="327.910198" y="61.879246" style="fill: #1f77b4; stroke: #1f77b4"/>
     <use xlink:href="#m32928d0940" x="329.674625" y="61.576348" style="fill: #1f77b4; stroke: #1f77b4"/>
     <use xlink:href="#m32928d0940" x="331.439051" y="61.273449" style="fill: #1f77b4; stroke: #1f77b4"/>
     <use xlink:href="#m32928d0940" x="333.203478" y="60.970551" style="fill: #1f77b4; stroke: #1f77b4"/>
     <use xlink:href="#m32928d0940" x="334.967905" y="60.667653" style="fill: #1f77b4; stroke: #1f77b4"/>
     <use xlink:href="#m32928d0940" x="336.732332" y="60.364755" style="fill: #1f77b4; stroke: #1f77b4"/>
     <use xlink:href="#m32928d0940" x="338.496759" y="60.061856" style="fill: #1f77b4; stroke: #1f77b4"/>
     <use xlink:href="#m32928d0940" x="340.261186" y="59.758958" style="fill: #1f77b4; stroke: #1f77b4"/>
     <use xlink:href="#m32928d0940" x="342.025613" y="59.45606" style="fill: #1f77b4; stroke: #1f77b4"/>
     <use xlink:href="#m32928d0940" x="343.79004" y="59.164115" style="fill: #1f77b4; stroke: #1f77b4"/>
     <use xlink:href="#m32928d0940" x="345.554466" y="58.872171" style="fill: #1f77b4; stroke: #1f77b4"/>
     <use xlink:href="#m32928d0940" x="347.318893" y="58.580226" style="fill: #1f77b4; stroke: #1f77b4"/>
     <use xlink:href="#m32928d0940" x="349.08332" y="58.288282" style="fill: #1f77b4; stroke: #1f77b4"/>
     <use xlink:href="#m32928d0940" x="350.847747" y="57.996338" style="fill: #1f77b4; stroke: #1f77b4"/>
     <use xlink:href="#m32928d0940" x="352.612174" y="57.704393" style="fill: #1f77b4; stroke: #1f77b4"/>
     <use xlink:href="#m32928d0940" x="354.376601" y="57.412449" style="fill: #1f77b4; stroke: #1f77b4"/>
     <use xlink:href="#m32928d0940" x="356.141028" y="57.120504" style="fill: #1f77b4; stroke: #1f77b4"/>
     <use xlink:href="#m32928d0940" x="357.905455" y="56.88374" style="fill: #1f77b4; stroke: #1f77b4"/>
     <use xlink:href="#m32928d0940" x="359.669881" y="56.646976" style="fill: #1f77b4; stroke: #1f77b4"/>
     <use xlink:href="#m32928d0940" x="361.434308" y="56.410211" style="fill: #1f77b4; stroke: #1f77b4"/>
     <use xlink:href="#m32928d0940" x="363.198735" y="56.173447" style="fill: #1f77b4; stroke: #1f77b4"/>
     <use xlink:href="#m32928d0940" x="364.963162" y="55.936683" style="fill: #1f77b4; stroke: #1f77b4"/>
     <use xlink:href="#m32928d0940" x="366.727589" y="55.699919" style="fill: #1f77b4; stroke: #1f77b4"/>
     <use xlink:href="#m32928d0940" x="368.492016" y="55.463154" style="fill: #1f77b4; stroke: #1f77b4"/>
     <use xlink:href="#m32928d0940" x="370.256443" y="55.22639" style="fill: #1f77b4; stroke: #1f77b4"/>
     <use xlink:href="#m32928d0940" x="372.02087" y="55.06614" style="fill: #1f77b4; stroke: #1f77b4"/>
     <use xlink:href="#m32928d0940" x="373.785296" y="54.905891" style="fill: #1f77b4; stroke: #1f77b4"/>
     <use xlink:href="#m32928d0940" x="375.549723" y="54.745641" style="fill: #1f77b4; stroke: #1f77b4"/>
     <use xlink:href="#m32928d0940" x="377.31415" y="54.585392" style="fill: #1f77b4; stroke: #1f77b4"/>
     <use xlink:href="#m32928d0940" x="379.078577" y="54.454671" style="fill: #1f77b4; stroke: #1f77b4"/>
     <use xlink:href="#m32928d0940" x="380.843004" y="54.32395" style="fill: #1f77b4; stroke: #1f77b4"/>
     <use xlink:href="#m32928d0940" x="382.607431" y="54.193229" style="fill: #1f77b4; stroke: #1f77b4"/>
     <use xlink:href="#m32928d0940" x="384.371858" y="54.062508" style="fill: #1f77b4; stroke: #1f77b4"/>
     <use xlink:href="#m32928d0940" x="386.136285" y="53.952292" style="fill: #1f77b4; stroke: #1f77b4"/>
     <use xlink:href="#m32928d0940" x="387.900711" y="53.842077" style="fill: #1f77b4; stroke: #1f77b4"/>
     <use xlink:href="#m32928d0940" x="389.665138" y="53.731862" style="fill: #1f77b4; stroke: #1f77b4"/>
     <use xlink:href="#m32928d0940" x="391.429565" y="53.621646" style="fill: #1f77b4; stroke: #1f77b4"/>
     <use xlink:href="#m32928d0940" x="393.193992" y="53.608235" style="fill: #1f77b4; stroke: #1f77b4"/>
     <use xlink:href="#m32928d0940" x="394.958419" y="53.594823" style="fill: #1f77b4; stroke: #1f77b4"/>
     <use xlink:href="#m32928d0940" x="396.722846" y="53.581412" style="fill: #1f77b4; stroke: #1f77b4"/>
     <use xlink:href="#m32928d0940" x="398.487273" y="53.568" style="fill: #1f77b4; stroke: #1f77b4"/>
    </g>
   </g>
   <g id="patch_3">
    <path d="M 57.6 307.584 
L 57.6 41.472 
" style="fill: none; stroke: #000000; stroke-width: 0.8; stroke-linejoin: miter; stroke-linecap: square"/>
   </g>
   <g id="patch_4">
    <path d="M 414.72 307.584 
L 414.72 41.472 
" style="fill: none; stroke: #000000; stroke-width: 0.8; stroke-linejoin: miter; stroke-linecap: square"/>
   </g>
   <g id="patch_5">
    <path d="M 57.6 307.584 
L 414.72 307.584 
" style="fill: none; stroke: #000000; stroke-width: 0.8; stroke-linejoin: miter; stroke-linecap: square"/>
   </g>
   <g id="patch_6">
    <path d="M 57.6 41.472 
L 414.72 41.472 
" style="fill: none; stroke: #000000; stroke-width: 0.8; stroke-linejoin: miter; stroke-linecap: square"/>
   </g>
  </g>
 </g>
 <defs>
  <clipPath id="pacc09d9d60">
   <rect x="57.6" y="41.472" width="357.12" height="266.112"/>
  </clipPath>
 </defs>
</svg>
