<?xml version="1.0" encoding="utf-8" standalone="no"?>
<!DOCTYPE svg PUBLIC "-//W3C//DTD SVG 1.1//EN"
  "http://www.w3.org/Graphics/SVG/1.1/DTD/svg11.dtd">
<svg xmlns:xlink="http://www.w3.org/1999/xlink" width="460.8pt" height="345.6pt" viewBox="0 0 460.8 345.6" xmlns="http://www.w3.org/2000/svg" version="1.1">
 <metadata>
  <rdf:RDF xmlns:dc="http://purl.org/dc/elements/1.1/" xmlns:cc="http://creativecommons.org/ns#" xmlns:rdf="http://www.w3.org/1999/02/22-rdf-syntax-ns#">
   <cc:Work>
    <dc:type rdf:resource="http://purl.org/dc/dcmitype/StillImage"/>
    <dc:date>2026-06-01T12:16:42.531887</dc:date>
    <dc:format>image/svg+xml</dc:format>
    <dc:creator>
     <cc:Agent>
      <dc:title>Matplotlib v3.10.1, https://matplotlib.org/</dc:title>
     </cc:Agent>
    </dc:creator>
   </cc:Work>
  </rdf:RDF>
 </metadata>
 <defs>
  <style type="text/css">*{stroke-linejoin: round; stroke-linecap: butt}</style>
 </defs>
 <g id="figure_1">
  <g id="patch_1">
   <path d="M 0 345.6 
L 460.8 345.6 
L 460.8 0 
L 0 0 
z
" style="fill: #ffffff"/>
  </g>
  <g id="axes_1">
   <g id="patch_2">
    <path d="M 57.6 307.584 
L 414.72 307.584 
L 414.72 41.472 
L 57.6 41.472 
z
" style="fill: #ffffff"/>
   </g>
   <g id="matplotlib.axis_1">
    <g id="xtick_1">
     <g id="line2d_1">
      <defs>
       <path id="m98307d53f0" d="M 0 0 
L 0 3.5 
" style="stroke: #000000; stroke-width: 0.8"/>
      </defs>
      <g>
       <use xlink:href="#m98307d53f0" x="73.832727" y="307.584" style="stroke: #000000; stroke-width: 0.8"/>
      </g>
     </g>
     <g id="text_1">
      <!-- 0.0 -->
      <g transform="translate(65.881165 322.182437) scale(0.1 -0.1)">
       <defs>
        <path id="DejaVuSans-30" d="M 2034 4250 
Q 1547 4250 1301 3770 
Q 1056 3291 1056 2328 
Q 1056 1369 1301 889 
Q 1547 409 2034 409 
Q 2525 409 2770 889 
Q 3016 1369 3016 2328 
Q 3016 3291 2770 3770 
Q 2525 4250 2034 4250 
z
M 2034 4750 
Q 2819 4750 3233 4129 
Q 3647 3509 3647 2328 
Q 3647 1150 3233 529 
Q 2819 -91 2034 -91 
Q 1250 -91 836 529 
Q 422 1150 422 2328 
Q 422 3509 836 4129 
Q 1250 4750 2034 4750 
z
" transform="scale(0.015625)"/>
        <path id="DejaVuSans-2e" d="M 684 794 
L 1344 794 
L 1344 0 
L 684 0 
L 684 794 
z
" transform="scale(0.015625)"/>
       </defs>
       <use xlink:href="#DejaVuSans-30"/>
       <use xlink:href="#DejaVuSans-2e" transform="translate(63.623047 0)"/>
       <use xlink:href="#DejaVuSans-30" transform="translate(95.410156 0)"/>
      </g>
     </g>
    </g>
    <g id="xtick_2">
     <g id="line2d_2">
      <g>
       <use xlink:href="#m98307d53f0" x="138.763636" y="307.584" style="stroke: #000000; stroke-width: 0.8"/>
      </g>
     </g>
     <g id="text_2">
      <!-- 0.2 -->
      <g transform="translate(130.812074 322.182437) scale(0.1 -0.1)">
       <defs>
        <path id="DejaVuSans-32" d="M 1228 531 
L 3431 531 
L 3431 0 
L 469 0 
L 469 531 
Q 828 903 1448 1529 
Q 2069 2156 2228 2338 
Q 2531 2678 2651 2914 
Q 2772 3150 2772 3378 
Q 2772 3750 2511 3984 
Q 2250 4219 1831 4219 
Q 1534 4219 1204 4116 
Q 875 4013 500 3803 
L 500 4441 
Q 881 4594 1212 4672 
Q 1544 4750 1819 4750 
Q 2544 4750 2975 4387 
Q 3406 4025 3406 3419 
Q 3406 3131 3298 2873 
Q 3191 2616 2906 2266 
Q 2828 2175 2409 1742 
Q 1991 1309 1228 531 
z
" transform="scale(0.015625)"/>
       </defs>
       <use xlink:href="#DejaVuSans-30"/>
       <use xlink:href="#DejaVuSans-2e" transform="translate(63.623047 0)"/>
       <use xlink:href="#DejaVuSans-32" transform="translate(95.410156 0)"/>
      </g>
     </g>
    </g>
    <g id="xtick_3">
     <g id="line2d_3">
      <g>
       <use xlink:href="#m98307d53f0" x="203.694545" y="307.584" style="stroke: #000000; stroke-width: 0.8"/>
      </g>
     </g>
     <g id="text_3">
      <!-- 0.4 -->
      <g transform="translate(195.742983 322.182437) scale(0.1 -0.1)">
       <defs>
        <path id="DejaVuSans-34" d="M 2419 4116 
L 825 1625 
L 2419 1625 
L 2419 4116 
z
M 2253 4666 
L 3047 4666 
L 3047 1625 
L 3713 1625 
L 3713 1100 
L 3047 1100 
L 3047 0 
L 2419 0 
L 2419 1100 
L 313 1100 
L 313 1709 
L 2253 4666 
z
" transform="scale(0.015625)"/>
       </defs>
       <use xlink:href="#DejaVuSans-30"/>
       <use xlink:href="#DejaVuSans-2e" transform="translate(63.623047 0)"/>
       <use xlink:href="#DejaVuSans-34" transform="translate(95.410156 0)"/>
      </g>
     </g>
    </g>
    <g id="xtick_4">
     <g id="line2d_4">
      <g>
       <use xlink:href="#m98307d53f0" x="268.625455" y="307.584" style="stroke: #000000; stroke-width: 0.8"/>
      </g>
     </g>
     <g id="text_4">
      <!-- 0.6 -->
      <g transform="translate(260.673892 322.182437) scale(0.1 -0.1)">
       <defs>
        <path id="DejaVuSans-36" d="M 2113 2584 
Q 1688 2584 1439 2293 
Q 1191 2003 1191 1497 
Q 1191 994 1439 701 
Q 1688 409 2113 409 
Q 2538 409 2786 701 
Q 3034 994 3034 1497 
Q 3034 2003 2786 2293 
Q 2538 2584 2113 2584 
z
M 3366 4563 
L 3366 3988 
Q 3128 4100 2886 4159 
Q 2644 4219 2406 4219 
Q 1781 4219 1451 3797 
Q 1122 3375 1075 2522 
Q 1259 2794 1537 2939 
Q 1816 3084 2150 3084 
Q 2853 3084 3261 2657 
Q 3669 2231 3669 1497 
Q 3669 778 3244 343 
Q 2819 -91 2113 -91 
Q 1303 -91 875 529 
Q 447 1150 447 2328 
Q 447 3434 972 4092 
Q 1497 4750 2381 4750 
Q 2619 4750 2861 4703 
Q 3103 4656 3366 4563 
z
" transform="scale(0.015625)"/>
       </defs>
       <use xlink:href="#DejaVuSans-30"/>
       <use xlink:href="#DejaVuSans-2e" transform="translate(63.623047 0)"/>
       <use xlink:href="#DejaVuSans-36" transform="translate(95.410156 0)"/>
      </g>
     </g>
    </g>
    <g id="xtick_5">
     <g id="line2d_5">
      <g>
       <use xlink:href="#m98307d53f0" x="333.556364" y="307.584" style="stroke: #000000; stroke-width: 0.8"/>
      </g>
     </g>
     <g id="text_5">
      <!-- 0.8 -->
      <g transform="translate(325.604801 322.182437) scale(0.1 -0.1)">
       <defs>
        <path id="DejaVuSans-38" d="M 2034 2216 
Q 1584 2216 1326 1975 
Q 1069 1734 1069 1313 
Q 1069 891 1326 650 
Q 1584 409 2034 409 
Q 2484 409 2743 651 
Q 3003 894 3003 1313 
Q 3003 1734 2745 1975 
Q 2488 2216 2034 2216 
z
M 1403 2484 
Q 997 2584 770 2862 
Q 544 3141 544 3541 
Q 544 4100 942 4425 
Q 1341 4750 2034 4750 
Q 2731 4750 3128 4425 
Q 3525 4100 3525 3541 
Q 3525 3141 3298 2862 
Q 3072 2584 2669 2484 
Q 3125 2378 3379 2068 
Q 3634 1759 3634 1313 
Q 3634 634 3220 271 
Q 2806 -91 2034 -91 
Q 1263 -91 848 271 
Q 434 634 434 1313 
Q 434 1759 690 2068 
Q 947 2378 1403 2484 
z
M 1172 3481 
Q 1172 3119 1398 2916 
Q 1625 2713 2034 2713 
Q 2441 2713 2670 2916 
Q 2900 3119 2900 3481 
Q 2900 3844 2670 4047 
Q 2441 4250 2034 4250 
Q 1625 4250 1398 4047 
Q 1172 3844 1172 3481 
z
" transform="scale(0.015625)"/>
       </defs>
       <use xlink:href="#DejaVuSans-30"/>
       <use xlink:href="#DejaVuSans-2e" transform="translate(63.623047 0)"/>
       <use xlink:href="#DejaVuSans-38" transform="translate(95.410156 0)"/>
      </g>
     </g>
    </g>
    <g id="xtick_6">
     <g id="line2d_6">
      <g>
       <use xlink:href="#m98307d53f0" x="398.487273" y="307.584" style="stroke: #000000; stroke-width: 0.8"/>
      </g>
     </g>
     <g id="text_6">
      <!-- 1.0 -->
      <g transform="translate(390.53571 322.182437) scale(0.1 -0.1)">
       <defs>
        <path id="DejaVuSans-31" d="M 794 531 
L 1825 531 
L 1825 4091 
L 703 3866 
L 703 4441 
L 1819 4666 
L 2450 4666 
L 2450 531 
L 3481 531 
L 3481 0 
L 794 0 
L 794 531 
z
" transform="scale(0.015625)"/>
       </defs>
       <use xlink:href="#DejaVuSans-31"/>
       <use xlink:href="#DejaVuSans-2e" transform="translate(63.623047 0)"/>
       <use xlink:href="#DejaVuSans-30" transform="translate(95.410156 0)"/>
      </g>
     </g>
    </g>
    <g id="text_7">
     <!-- Truncation threshold -->
     <g transform="translate(184.926406 335.860562) scale(0.1 -0.1)">
      <defs>
       <path id="DejaVuSans-54" d="M -19 4666 
L 3928 4666 
L 3928 4134 
L 2272 4134 
L 2272 0 
L 1638 0 
L 1638 4134 
L -19 4134 
L -19 4666 
z
" transform="scale(0.015625)"/>
       <path id="DejaVuSans-72" d="M 2631 2963 
Q 2534 3019 2420 3045 
Q 2306 3072 2169 3072 
Q 1681 3072 1420 2755 
Q 1159 2438 1159 1844 
L 1159 0 
L 581 0 
L 581 3500 
L 1159 3500 
L 1159 2956 
Q 1341 3275 1631 3429 
Q 1922 3584 2338 3584 
Q 2397 3584 2469 3576 
Q 2541 3569 2628 3553 
L 2631 2963 
z
" transform="scale(0.015625)"/>
       <path id="DejaVuSans-75" d="M 544 1381 
L 544 3500 
L 1119 3500 
L 1119 1403 
Q 1119 906 1312 657 
Q 1506 409 1894 409 
Q 2359 409 2629 706 
Q 2900 1003 2900 1516 
L 2900 3500 
L 3475 3500 
L 3475 0 
L 2900 0 
L 2900 538 
Q 2691 219 2414 64 
Q 2138 -91 1772 -91 
Q 1169 -91 856 284 
Q 544 659 544 1381 
z
M 1991 3584 
L 1991 3584 
z
" transform="scale(0.015625)"/>
       <path id="DejaVuSans-6e" d="M 3513 2113 
L 3513 0 
L 2938 0 
L 2938 2094 
Q 2938 2591 2744 2837 
Q 2550 3084 2163 3084 
Q 1697 3084 1428 2787 
Q 1159 2491 1159 1978 
L 1159 0 
L 581 0 
L 581 3500 
L 1159 3500 
L 1159 2956 
Q 1366 3272 1645 3428 
Q 1925 3584 2291 3584 
Q 2894 3584 3203 3211 
Q 3513 2838 3513 2113 
z
" transform="scale(0.015625)"/>
       <path id="DejaVuSans-63" d="M 3122 3366 
L 3122 2828 
Q 2878 2963 2633 3030 
Q 2388 3097 2138 3097 
Q 1578 3097 1268 2742 
Q 959 2388 959 1747 
Q 959 1106 1268 751 
Q 1578 397 2138 397 
Q 2388 397 2633 464 
Q 2878 531 3122 666 
L 3122 134 
Q 2881 22 2623 -34 
Q 2366 -91 2075 -91 
Q 1284 -91 818 406 
Q 353 903 353 1747 
Q 353 2603 823 3093 
Q 1294 3584 2113 3584 
Q 2378 3584 2631 3529 
Q 2884 3475 3122 3366 
z
" transform="scale(0.015625)"/>
       <path id="DejaVuSans-61" d="M 2194 1759 
Q 1497 1759 1228 1600 
Q 959 1441 959 1056 
Q 959 750 1161 570 
Q 1363 391 1709 391 
Q 2188 391 2477 730 
Q 2766 1069 2766 1631 
L 2766 1759 
L 2194 1759 
z
M 3341 1997 
L 3341 0 
L 2766 0 
L 2766 531 
Q 2569 213 2275 61 
Q 1981 -91 1556 -91 
Q 1019 -91 701 211 
Q 384 513 384 1019 
Q 384 1609 779 1909 
Q 1175 2209 1959 2209 
L 2766 2209 
L 2766 2266 
Q 2766 2663 2505 2880 
Q 2244 3097 1772 3097 
Q 1472 3097 1187 3025 
Q 903 2953 641 2809 
L 641 3341 
Q 956 3463 1253 3523 
Q 1550 3584 1831 3584 
Q 2591 3584 2966 3190 
Q 3341 2797 3341 1997 
z
" transform="scale(0.015625)"/>
       <path id="DejaVuSans-74" d="M 1172 4494 
L 1172 3500 
L 2356 3500 
L 2356 3053 
L 1172 3053 
L 1172 1153 
Q 1172 725 1289 603 
Q 1406 481 1766 481 
L 2356 481 
L 2356 0 
L 1766 0 
Q 1100 0 847 248 
Q 594 497 594 1153 
L 594 3053 
L 172 3053 
L 172 3500 
L 594 3500 
L 594 4494 
L 1172 4494 
z
" transform="scale(0.015625)"/>
       <path id="DejaVuSans-69" d="M 603 3500 
L 1178 3500 
L 1178 0 
L 603 0 
L 603 3500 
z
M 603 4863 
L 1178 4863 
L 1178 4134 
L 603 4134 
L 603 4863 
z
" transform="scale(0.015625)"/>
       <path id="DejaVuSans-6f" d="M 1959 3097 
Q 1497 3097 1228 2736 
Q 959 2375 959 1747 
Q 959 1119 1226 758 
Q 1494 397 1959 397 
Q 2419 397 2687 759 
Q 2956 1122 2956 1747 
Q 2956 2369 2687 2733 
Q 2419 3097 1959 3097 
z
M 1959 3584 
Q 2709 3584 3137 3096 
Q 3566 2609 3566 1747 
Q 3566 888 3137 398 
Q 2709 -91 1959 -91 
Q 1206 -91 779 398 
Q 353 888 353 1747 
Q 353 2609 779 3096 
Q 1206 3584 1959 3584 
z
" transform="scale(0.015625)"/>
       <path id="DejaVuSans-20" transform="scale(0.015625)"/>
       <path id="DejaVuSans-68" d="M 3513 2113 
L 3513 0 
L 2938 0 
L 2938 2094 
Q 2938 2591 2744 2837 
Q 2550 3084 2163 3084 
Q 1697 3084 1428 2787 
Q 1159 2491 1159 1978 
L 1159 0 
L 581 0 
L 581 4863 
L 1159 4863 
L 1159 2956 
Q 1366 3272 1645 3428 
Q 1925 3584 2291 3584 
Q 2894 3584 3203 3211 
Q 3513 2838 3513 2113 
z
" transform="scale(0.015625)"/>
       <path id="DejaVuSans-65" d="M 3597 1894 
L 3597 1613 
L 953 1613 
Q 991 1019 1311 708 
Q 1631 397 2203 397 
Q 2534 397 2845 478 
Q 3156 559 3463 722 
L 3463 178 
Q 3153 47 2828 -22 
Q 2503 -91 2169 -91 
Q 1331 -91 842 396 
Q 353 884 353 1716 
Q 353 2575 817 3079 
Q 1281 3584 2069 3584 
Q 2775 3584 3186 3129 
Q 3597 2675 3597 1894 
z
M 3022 2063 
Q 3016 2534 2758 2815 
Q 2500 3097 2075 3097 
Q 1594 3097 1305 2825 
Q 1016 2553 972 2059 
L 3022 2063 
z
" transform="scale(0.015625)"/>
       <path id="DejaVuSans-73" d="M 2834 3397 
L 2834 2853 
Q 2591 2978 2328 3040 
Q 2066 3103 1784 3103 
Q 1356 3103 1142 2972 
Q 928 2841 928 2578 
Q 928 2378 1081 2264 
Q 1234 2150 1697 2047 
L 1894 2003 
Q 2506 1872 2764 1633 
Q 3022 1394 3022 966 
Q 3022 478 2636 193 
Q 2250 -91 1575 -91 
Q 1294 -91 989 -36 
Q 684 19 347 128 
L 347 722 
Q 666 556 975 473 
Q 1284 391 1588 391 
Q 1994 391 2212 530 
Q 2431 669 2431 922 
Q 2431 1156 2273 1281 
Q 2116 1406 1581 1522 
L 1381 1569 
Q 847 1681 609 1914 
Q 372 2147 372 2553 
Q 372 3047 722 3315 
Q 1072 3584 1716 3584 
Q 2034 3584 2315 3537 
Q 2597 3491 2834 3397 
z
" transform="scale(0.015625)"/>
       <path id="DejaVuSans-6c" d="M 603 4863 
L 1178 4863 
L 1178 0 
L 603 0 
L 603 4863 
z
" transform="scale(0.015625)"/>
       <path id="DejaVuSans-64" d="M 2906 2969 
L 2906 4863 
L 3481 4863 
L 3481 0 
L 2906 0 
L 2906 525 
Q 2725 213 2448 61 
Q 2172 -91 1784 -91 
Q 1150 -91 751 415 
Q 353 922 353 1747 
Q 353 2572 751 3078 
Q 1150 3584 1784 3584 
Q 2172 3584 2448 3432 
Q 2725 3281 2906 2969 
z
M 947 1747 
Q 947 1113 1208 752 
Q 1469 391 1925 391 
Q 2381 391 2643 752 
Q 2906 1113 2906 1747 
Q 2906 2381 2643 2742 
Q 2381 3103 1925 3103 
Q 1469 3103 1208 2742 
Q 947 2381 947 1747 
z
" transform="scale(0.015625)"/>
      </defs>
      <use xlink:href="#DejaVuSans-54"/>
      <use xlink:href="#DejaVuSans-72" transform="translate(46.333984 0)"/>
      <use xlink:href="#DejaVuSans-75" transform="translate(87.447266 0)"/>
      <use xlink:href="#DejaVuSans-6e" transform="translate(150.826172 0)"/>
      <use xlink:href="#DejaVuSans-63" transform="translate(214.205078 0)"/>
      <use xlink:href="#DejaVuSans-61" transform="translate(269.185547 0)"/>
      <use xlink:href="#DejaVuSans-74" transform="translate(330.464844 0)"/>
      <use xlink:href="#DejaVuSans-69" transform="translate(369.673828 0)"/>
      <use xlink:href="#DejaVuSans-6f" transform="translate(397.457031 0)"/>
      <use xlink:href="#DejaVuSans-6e" transform="translate(458.638672 0)"/>
      <use xlink:href="#DejaVuSans-20" transform="translate(522.017578 0)"/>
      <use xlink:href="#DejaVuSans-74" transform="translate(553.804688 0)"/>
      <use xlink:href="#DejaVuSans-68" transform="translate(593.013672 0)"/>
      <use xlink:href="#DejaVuSans-72" transform="translate(656.392578 0)"/>
      <use xlink:href="#DejaVuSans-65" transform="translate(695.255859 0)"/>
      <use xlink:href="#DejaVuSans-73" transform="translate(756.779297 0)"/>
      <use xlink:href="#DejaVuSans-68" transform="translate(808.878906 0)"/>
      <use xlink:href="#DejaVuSans-6f" transform="translate(872.257812 0)"/>
      <use xlink:href="#DejaVuSans-6c" transform="translate(933.439453 0)"/>
      <use xlink:href="#DejaVuSans-64" transform="translate(961.222656 0)"/>
     </g>
    </g>
   </g>
   <g id="matplotlib.axis_2">
    <g id="ytick_1">
     <g id="line2d_7">
      <defs>
       <path id="m3dd5dc3206" d="M 0 0 
L -3.5 0 
" style="stroke: #000000; stroke-width: 0.8"/>
      </defs>
      <g>
       <use xlink:href="#m3dd5dc3206" x="57.6" y="226.795322" style="stroke: #000000; stroke-width: 0.8"/>
      </g>
     </g>
     <g id="text_8">
      <!-- $\mathdefault{10^{2}}$ -->
      <g transform="translate(33 230.594541) scale(0.1 -0.1)">
       <use xlink:href="#DejaVuSans-31" transform="translate(0 0.765625)"/>
       <use xlink:href="#DejaVuSans-30" transform="translate(63.623047 0.765625)"/>
       <use xlink:href="#DejaVuSans-32" transform="translate(128.203125 39.046875) scale(0.7)"/>
      </g>
     </g>
    </g>
    <g id="ytick_2">
     <g id="line2d_8">
      <g>
       <use xlink:href="#m3dd5dc3206" x="57.6" y="131.553699" style="stroke: #000000; stroke-width: 0.8"/>
      </g>
     </g>
     <g id="text_9">
      <!-- $\mathdefault{10^{3}}$ -->
      <g transform="translate(33 135.352918) scale(0.1 -0.1)">
       <defs>
        <path id="DejaVuSans-33" d="M 2597 2516 
Q 3050 2419 3304 2112 
Q 3559 1806 3559 1356 
Q 3559 666 3084 287 
Q 2609 -91 1734 -91 
Q 1441 -91 1130 -33 
Q 819 25 488 141 
L 488 750 
Q 750 597 1062 519 
Q 1375 441 1716 441 
Q 2309 441 2620 675 
Q 2931 909 2931 1356 
Q 2931 1769 2642 2001 
Q 2353 2234 1838 2234 
L 1294 2234 
L 1294 2753 
L 1863 2753 
Q 2328 2753 2575 2939 
Q 2822 3125 2822 3475 
Q 2822 3834 2567 4026 
Q 2313 4219 1838 4219 
Q 1578 4219 1281 4162 
Q 984 4106 628 3988 
L 628 4550 
Q 988 4650 1302 4700 
Q 1616 4750 1894 4750 
Q 2613 4750 3031 4423 
Q 3450 4097 3450 3541 
Q 3450 3153 3228 2886 
Q 3006 2619 2597 2516 
z
" transform="scale(0.015625)"/>
       </defs>
       <use xlink:href="#DejaVuSans-31" transform="translate(0 0.765625)"/>
       <use xlink:href="#DejaVuSans-30" transform="translate(63.623047 0.765625)"/>
       <use xlink:href="#DejaVuSans-33" transform="translate(128.203125 39.046875) scale(0.7)"/>
      </g>
     </g>
    </g>
    <g id="ytick_3">
     <g id="line2d_9">
      <defs>
       <path id="m0958a00002" d="M 0 0 
L -2 0 
" style="stroke: #000000; stroke-width: 0.6"/>
      </defs>
      <g>
       <use xlink:href="#m0958a00002" x="57.6" y="293.36636" style="stroke: #000000; stroke-width: 0.6"/>
      </g>
     </g>
    </g>
    <g id="ytick_4">
     <g id="line2d_10">
      <g>
       <use xlink:href="#m0958a00002" x="57.6" y="276.595143" style="stroke: #000000; stroke-width: 0.6"/>
      </g>
     </g>
    </g>
    <g id="ytick_5">
     <g id="line2d_11">
      <g>
       <use xlink:href="#m0958a00002" x="57.6" y="264.695775" style="stroke: #000000; stroke-width: 0.6"/>
      </g>
     </g>
    </g>
    <g id="ytick_6">
     <g id="line2d_12">
      <g>
       <use xlink:href="#m0958a00002" x="57.6" y="255.465908" style="stroke: #000000; stroke-width: 0.6"/>
      </g>
     </g>
    </g>
    <g id="ytick_7">
     <g id="line2d_13">
      <g>
       <use xlink:href="#m0958a00002" x="57.6" y="247.924557" style="stroke: #000000; stroke-width: 0.6"/>
      </g>
     </g>
    </g>
    <g id="ytick_8">
     <g id="line2d_14">
      <g>
       <use xlink:href="#m0958a00002" x="57.6" y="241.548436" style="stroke: #000000; stroke-width: 0.6"/>
      </g>
     </g>
    </g>
    <g id="ytick_9">
     <g id="line2d_15">
      <g>
       <use xlink:href="#m0958a00002" x="57.6" y="236.025189" style="stroke: #000000; stroke-width: 0.6"/>
      </g>
     </g>
    </g>
    <g id="ytick_10">
     <g id="line2d_16">
      <g>
       <use xlink:href="#m0958a00002" x="57.6" y="231.15334" style="stroke: #000000; stroke-width: 0.6"/>
      </g>
     </g>
    </g>
    <g id="ytick_11">
     <g id="line2d_17">
      <g>
       <use xlink:href="#m0958a00002" x="57.6" y="198.124737" style="stroke: #000000; stroke-width: 0.6"/>
      </g>
     </g>
    </g>
    <g id="ytick_12">
     <g id="line2d_18">
      <g>
       <use xlink:href="#m0958a00002" x="57.6" y="181.353519" style="stroke: #000000; stroke-width: 0.6"/>
      </g>
     </g>
    </g>
    <g id="ytick_13">
     <g id="line2d_19">
      <g>
       <use xlink:href="#m0958a00002" x="57.6" y="169.454151" style="stroke: #000000; stroke-width: 0.6"/>
      </g>
     </g>
    </g>
    <g id="ytick_14">
     <g id="line2d_20">
      <g>
       <use xlink:href="#m0958a00002" x="57.6" y="160.224284" style="stroke: #000000; stroke-width: 0.6"/>
      </g>
     </g>
    </g>
    <g id="ytick_15">
     <g id="line2d_21">
      <g>
       <use xlink:href="#m0958a00002" x="57.6" y="152.682934" style="stroke: #000000; stroke-width: 0.6"/>
      </g>
     </g>
    </g>
    <g id="ytick_16">
     <g id="line2d_22">
      <g>
       <use xlink:href="#m0958a00002" x="57.6" y="146.306813" style="stroke: #000000; stroke-width: 0.6"/>
      </g>
     </g>
    </g>
    <g id="ytick_17">
     <g id="line2d_23">
      <g>
       <use xlink:href="#m0958a00002" x="57.6" y="140.783566" style="stroke: #000000; stroke-width: 0.6"/>
      </g>
     </g>
    </g>
    <g id="ytick_18">
     <g id="line2d_24">
      <g>
       <use xlink:href="#m0958a00002" x="57.6" y="135.911717" style="stroke: #000000; stroke-width: 0.6"/>
      </g>
     </g>
    </g>
    <g id="ytick_19">
     <g id="line2d_25">
      <g>
       <use xlink:href="#m0958a00002" x="57.6" y="102.883114" style="stroke: #000000; stroke-width: 0.6"/>
      </g>
     </g>
    </g>
    <g id="ytick_20">
     <g id="line2d_26">
      <g>
       <use xlink:href="#m0958a00002" x="57.6" y="86.111896" style="stroke: #000000; stroke-width: 0.6"/>
      </g>
     </g>
    </g>
    <g id="ytick_21">
     <g id="line2d_27">
      <g>
       <use xlink:href="#m0958a00002" x="57.6" y="74.212528" style="stroke: #000000; stroke-width: 0.6"/>
      </g>
     </g>
    </g>
    <g id="ytick_22">
     <g id="line2d_28">
      <g>
       <use xlink:href="#m0958a00002" x="57.6" y="64.982661" style="stroke: #000000; stroke-width: 0.6"/>
      </g>
     </g>
    </g>
    <g id="ytick_23">
     <g id="line2d_29">
      <g>
       <use xlink:href="#m0958a00002" x="57.6" y="57.441311" style="stroke: #000000; stroke-width: 0.6"/>
      </g>
     </g>
    </g>
    <g id="ytick_24">
     <g id="line2d_30">
      <g>
       <use xlink:href="#m0958a00002" x="57.6" y="51.06519" style="stroke: #000000; stroke-width: 0.6"/>
      </g>
     </g>
    </g>
    <g id="ytick_25">
     <g id="line2d_31">
      <g>
       <use xlink:href="#m0958a00002" x="57.6" y="45.541943" style="stroke: #000000; stroke-width: 0.6"/>
      </g>
     </g>
    </g>
    <g id="text_10">
     <!-- Circuit depth -->
     <g transform="translate(26.920312 206.761594) rotate(-90) scale(0.1 -0.1)">
      <defs>
       <path id="DejaVuSans-43" d="M 4122 4306 
L 4122 3641 
Q 3803 3938 3442 4084 
Q 3081 4231 2675 4231 
Q 1875 4231 1450 3742 
Q 1025 3253 1025 2328 
Q 1025 1406 1450 917 
Q 1875 428 2675 428 
Q 3081 428 3442 575 
Q 3803 722 4122 1019 
L 4122 359 
Q 3791 134 3420 21 
Q 3050 -91 2638 -91 
Q 1578 -91 968 557 
Q 359 1206 359 2328 
Q 359 3453 968 4101 
Q 1578 4750 2638 4750 
Q 3056 4750 3426 4639 
Q 3797 4528 4122 4306 
z
" transform="scale(0.015625)"/>
       <path id="DejaVuSans-70" d="M 1159 525 
L 1159 -1331 
L 581 -1331 
L 581 3500 
L 1159 3500 
L 1159 2969 
Q 1341 3281 1617 3432 
Q 1894 3584 2278 3584 
Q 2916 3584 3314 3078 
Q 3713 2572 3713 1747 
Q 3713 922 3314 415 
Q 2916 -91 2278 -91 
Q 1894 -91 1617 61 
Q 1341 213 1159 525 
z
M 3116 1747 
Q 3116 2381 2855 2742 
Q 2594 3103 2138 3103 
Q 1681 3103 1420 2742 
Q 1159 2381 1159 1747 
Q 1159 1113 1420 752 
Q 1681 391 2138 391 
Q 2594 391 2855 752 
Q 3116 1113 3116 1747 
z
" transform="scale(0.015625)"/>
      </defs>
      <use xlink:href="#DejaVuSans-43"/>
      <use xlink:href="#DejaVuSans-69" transform="translate(69.824219 0)"/>
      <use xlink:href="#DejaVuSans-72" transform="translate(97.607422 0)"/>
      <use xlink:href="#DejaVuSans-63" transform="translate(136.470703 0)"/>
      <use xlink:href="#DejaVuSans-75" transform="translate(191.451172 0)"/>
      <use xlink:href="#DejaVuSans-69" transform="translate(254.830078 0)"/>
      <use xlink:href="#DejaVuSans-74" transform="translate(282.613281 0)"/>
      <use xlink:href="#DejaVuSans-20" transform="translate(321.822266 0)"/>
      <use xlink:href="#DejaVuSans-64" transform="translate(353.609375 0)"/>
      <use xlink:href="#DejaVuSans-65" transform="translate(417.085938 0)"/>
      <use xlink:href="#DejaVuSans-70" transform="translate(478.609375 0)"/>
      <use xlink:href="#DejaVuSans-74" transform="translate(542.085938 0)"/>
      <use xlink:href="#DejaVuSans-68" transform="translate(581.294922 0)"/>
     </g>
    </g>
   </g>
   <g id="line2d_32">
    <path d="M 73.832727 240.383207 
L 82.532813 206.333245 
L 91.232898 221.375612 
L 99.810841 221.375612 
L 108.388783 221.375612 
L 116.351102 197.305642 
L 124.313421 197.305642 
L 132.27574 197.305642 
L 140.238058 207.613933 
L 147.936685 188.238302 
L 155.635311 197.5089 
L 162.519529 192.886842 
L 169.403746 192.343776 
L 175.754238 184.652831 
L 182.10473 185.711537 
L 188.030022 170.820776 
L 193.955315 177.411213 
L 199.819725 168.736561 
L 205.684134 167.141649 
L 211.53718 160.224284 
L 217.390225 153.098645 
L 223.243271 157.736143 
L 229.096316 152.95961 
L 234.831522 154.949962 
L 240.566727 151.39342 
L 246.300937 154.949962 
L 252.035146 148.929069 
L 257.761078 152.067098 
L 263.487011 145.895238 
L 269.212943 149.24506 
L 274.938875 141.724861 
L 280.523071 145.429828 
L 286.107268 144.345024 
L 291.514535 144.345024 
L 296.921802 140.371991 
L 302.122321 142.364507 
L 307.322841 135.092622 
L 312.474436 138.373394 
L 317.626031 133.156132 
L 322.767792 131.927651 
L 327.909554 130.65358 
L 333.051315 132.941705 
L 338.193077 128.370366 
L 341.341435 132.262914 
L 344.489794 132.262914 
L 347.533646 132.262914 
L 350.577498 132.262914 
L 353.398056 132.262914 
L 356.218613 133.242216 
L 358.941974 128.523847 
L 361.665335 132.178843 
L 364.349241 127.686666 
L 367.033147 125.664975 
L 369.717053 127.762077 
L 372.400959 123.771766 
L 374.987806 125.772738 
L 377.574653 121.928642 
L 380.1615 124.289025 
L 382.748347 120.258484 
L 384.846256 122.356936 
L 386.944165 118.71376 
L 389.042074 120.416177 
L 391.139983 116.070801 
L 392.559914 119.324744 
L 393.979846 114.754916 
L 395.138131 117.547688 
L 396.296417 112.268383 
L 397.273009 116.557261 
L 398.249601 113.160199 
L 398.368437 115.843844 
L 398.487273 115.843844 
" clip-path="url(#p9a73616730)" style="fill: none; stroke-dasharray: 1.5,2.475; stroke-dashoffset: 0; stroke: #179c7d; stroke-width: 1.5"/>
    <defs>
     <path id="m8d644dee0f" d="M -3 3 
L 3 -3 
M -3 -3 
L 3 3 
" style="stroke: #179c7d"/>
    </defs>
    <g clip-path="url(#p9a73616730)">
     <use xlink:href="#m8d644dee0f" x="73.832727" y="240.383207" style="fill: #179c7d; stroke: #179c7d"/>
     <use xlink:href="#m8d644dee0f" x="82.532813" y="206.333245" style="fill: #179c7d; stroke: #179c7d"/>
     <use xlink:href="#m8d644dee0f" x="91.232898" y="221.375612" style="fill: #179c7d; stroke: #179c7d"/>
     <use xlink:href="#m8d644dee0f" x="99.810841" y="221.375612" style="fill: #179c7d; stroke: #179c7d"/>
     <use xlink:href="#m8d644dee0f" x="108.388783" y="221.375612" style="fill: #179c7d; stroke: #179c7d"/>
     <use xlink:href="#m8d644dee0f" x="116.351102" y="197.305642" style="fill: #179c7d; stroke: #179c7d"/>
     <use xlink:href="#m8d644dee0f" x="124.313421" y="197.305642" style="fill: #179c7d; stroke: #179c7d"/>
     <use xlink:href="#m8d644dee0f" x="132.27574" y="197.305642" style="fill: #179c7d; stroke: #179c7d"/>
     <use xlink:href="#m8d644dee0f" x="140.238058" y="207.613933" style="fill: #179c7d; stroke: #179c7d"/>
     <use xlink:href="#m8d644dee0f" x="147.936685" y="188.238302" style="fill: #179c7d; stroke: #179c7d"/>
     <use xlink:href="#m8d644dee0f" x="155.635311" y="197.5089" style="fill: #179c7d; stroke: #179c7d"/>
     <use xlink:href="#m8d644dee0f" x="162.519529" y="192.886842" style="fill: #179c7d; stroke: #179c7d"/>
     <use xlink:href="#m8d644dee0f" x="169.403746" y="192.343776" style="fill: #179c7d; stroke: #179c7d"/>
     <use xlink:href="#m8d644dee0f" x="175.754238" y="184.652831" style="fill: #179c7d; stroke: #179c7d"/>
     <use xlink:href="#m8d644dee0f" x="182.10473" y="185.711537" style="fill: #179c7d; stroke: #179c7d"/>
     <use xlink:href="#m8d644dee0f" x="188.030022" y="170.820776" style="fill: #179c7d; stroke: #179c7d"/>
     <use xlink:href="#m8d644dee0f" x="193.955315" y="177.411213" style="fill: #179c7d; stroke: #179c7d"/>
     <use xlink:href="#m8d644dee0f" x="199.819725" y="168.736561" style="fill: #179c7d; stroke: #179c7d"/>
     <use xlink:href="#m8d644dee0f" x="205.684134" y="167.141649" style="fill: #179c7d; stroke: #179c7d"/>
     <use xlink:href="#m8d644dee0f" x="211.53718" y="160.224284" style="fill: #179c7d; stroke: #179c7d"/>
     <use xlink:href="#m8d644dee0f" x="217.390225" y="153.098645" style="fill: #179c7d; stroke: #179c7d"/>
     <use xlink:href="#m8d644dee0f" x="223.243271" y="157.736143" style="fill: #179c7d; stroke: #179c7d"/>
     <use xlink:href="#m8d644dee0f" x="229.096316" y="152.95961" style="fill: #179c7d; stroke: #179c7d"/>
     <use xlink:href="#m8d644dee0f" x="234.831522" y="154.949962" style="fill: #179c7d; stroke: #179c7d"/>
     <use xlink:href="#m8d644dee0f" x="240.566727" y="151.39342" style="fill: #179c7d; stroke: #179c7d"/>
     <use xlink:href="#m8d644dee0f" x="246.300937" y="154.949962" style="fill: #179c7d; stroke: #179c7d"/>
     <use xlink:href="#m8d644dee0f" x="252.035146" y="148.929069" style="fill: #179c7d; stroke: #179c7d"/>
     <use xlink:href="#m8d644dee0f" x="257.761078" y="152.067098" style="fill: #179c7d; stroke: #179c7d"/>
     <use xlink:href="#m8d644dee0f" x="263.487011" y="145.895238" style="fill: #179c7d; stroke: #179c7d"/>
     <use xlink:href="#m8d644dee0f" x="269.212943" y="149.24506" style="fill: #179c7d; stroke: #179c7d"/>
     <use xlink:href="#m8d644dee0f" x="274.938875" y="141.724861" style="fill: #179c7d; stroke: #179c7d"/>
     <use xlink:href="#m8d644dee0f" x="280.523071" y="145.429828" style="fill: #179c7d; stroke: #179c7d"/>
     <use xlink:href="#m8d644dee0f" x="286.107268" y="144.345024" style="fill: #179c7d; stroke: #179c7d"/>
     <use xlink:href="#m8d644dee0f" x="291.514535" y="144.345024" style="fill: #179c7d; stroke: #179c7d"/>
     <use xlink:href="#m8d644dee0f" x="296.921802" y="140.371991" style="fill: #179c7d; stroke: #179c7d"/>
     <use xlink:href="#m8d644dee0f" x="302.122321" y="142.364507" style="fill: #179c7d; stroke: #179c7d"/>
     <use xlink:href="#m8d644dee0f" x="307.322841" y="135.092622" style="fill: #179c7d; stroke: #179c7d"/>
     <use xlink:href="#m8d644dee0f" x="312.474436" y="138.373394" style="fill: #179c7d; stroke: #179c7d"/>
     <use xlink:href="#m8d644dee0f" x="317.626031" y="133.156132" style="fill: #179c7d; stroke: #179c7d"/>
     <use xlink:href="#m8d644dee0f" x="322.767792" y="131.927651" style="fill: #179c7d; stroke: #179c7d"/>
     <use xlink:href="#m8d644dee0f" x="327.909554" y="130.65358" style="fill: #179c7d; stroke: #179c7d"/>
     <use xlink:href="#m8d644dee0f" x="333.051315" y="132.941705" style="fill: #179c7d; stroke: #179c7d"/>
     <use xlink:href="#m8d644dee0f" x="338.193077" y="128.370366" style="fill: #179c7d; stroke: #179c7d"/>
     <use xlink:href="#m8d644dee0f" x="341.341435" y="132.262914" style="fill: #179c7d; stroke: #179c7d"/>
     <use xlink:href="#m8d644dee0f" x="344.489794" y="132.262914" style="fill: #179c7d; stroke: #179c7d"/>
     <use xlink:href="#m8d644dee0f" x="347.533646" y="132.262914" style="fill: #179c7d; stroke: #179c7d"/>
     <use xlink:href="#m8d644dee0f" x="350.577498" y="132.262914" style="fill: #179c7d; stroke: #179c7d"/>
     <use xlink:href="#m8d644dee0f" x="353.398056" y="132.262914" style="fill: #179c7d; stroke: #179c7d"/>
     <use xlink:href="#m8d644dee0f" x="356.218613" y="133.242216" style="fill: #179c7d; stroke: #179c7d"/>
     <use xlink:href="#m8d644dee0f" x="358.941974" y="128.523847" style="fill: #179c7d; stroke: #179c7d"/>
     <use xlink:href="#m8d644dee0f" x="361.665335" y="132.178843" style="fill: #179c7d; stroke: #179c7d"/>
     <use xlink:href="#m8d644dee0f" x="364.349241" y="127.686666" style="fill: #179c7d; stroke: #179c7d"/>
     <use xlink:href="#m8d644dee0f" x="367.033147" y="125.664975" style="fill: #179c7d; stroke: #179c7d"/>
     <use xlink:href="#m8d644dee0f" x="369.717053" y="127.762077" style="fill: #179c7d; stroke: #179c7d"/>
     <use xlink:href="#m8d644dee0f" x="372.400959" y="123.771766" style="fill: #179c7d; stroke: #179c7d"/>
     <use xlink:href="#m8d644dee0f" x="374.987806" y="125.772738" style="fill: #179c7d; stroke: #179c7d"/>
     <use xlink:href="#m8d644dee0f" x="377.574653" y="121.928642" style="fill: #179c7d; stroke: #179c7d"/>
     <use xlink:href="#m8d644dee0f" x="380.1615" y="124.289025" style="fill: #179c7d; stroke: #179c7d"/>
     <use xlink:href="#m8d644dee0f" x="382.748347" y="120.258484" style="fill: #179c7d; stroke: #179c7d"/>
     <use xlink:href="#m8d644dee0f" x="384.846256" y="122.356936" style="fill: #179c7d; stroke: #179c7d"/>
     <use xlink:href="#m8d644dee0f" x="386.944165" y="118.71376" style="fill: #179c7d; stroke: #179c7d"/>
     <use xlink:href="#m8d644dee0f" x="389.042074" y="120.416177" style="fill: #179c7d; stroke: #179c7d"/>
     <use xlink:href="#m8d644dee0f" x="391.139983" y="116.070801" style="fill: #179c7d; stroke: #179c7d"/>
     <use xlink:href="#m8d644dee0f" x="392.559914" y="119.324744" style="fill: #179c7d; stroke: #179c7d"/>
     <use xlink:href="#m8d644dee0f" x="393.979846" y="114.754916" style="fill: #179c7d; stroke: #179c7d"/>
     <use xlink:href="#m8d644dee0f" x="395.138131" y="117.547688" style="fill: #179c7d; stroke: #179c7d"/>
     <use xlink:href="#m8d644dee0f" x="396.296417" y="112.268383" style="fill: #179c7d; stroke: #179c7d"/>
     <use xlink:href="#m8d644dee0f" x="397.273009" y="116.557261" style="fill: #179c7d; stroke: #179c7d"/>
     <use xlink:href="#m8d644dee0f" x="398.249601" y="113.160199" style="fill: #179c7d; stroke: #179c7d"/>
     <use xlink:href="#m8d644dee0f" x="398.368437" y="115.843844" style="fill: #179c7d; stroke: #179c7d"/>
     <use xlink:href="#m8d644dee0f" x="398.487273" y="115.843844" style="fill: #179c7d; stroke: #179c7d"/>
    </g>
   </g>
   <g id="LineCollection_1">
    <path d="M 57.6 99.546868 
L 414.72 99.546868 
" clip-path="url(#p9a73616730)" style="fill: none; stroke-dasharray: 9.6,2.4,1.5,2.4; stroke-dashoffset: 0; stroke: #008598; stroke-width: 1.5"/>
   </g>
   <g id="LineCollection_2">
    <path d="M 57.6 53.568 
L 414.72 53.568 
" clip-path="url(#p9a73616730)" style="fill: none; stroke-dasharray: 9.6,2.4,1.5,2.4; stroke-dashoffset: 0; stroke: #b2d235; stroke-width: 1.5"/>
   </g>
   <g id="LineCollection_3">
    <path d="M 57.6 295.488 
L 414.72 295.488 
" clip-path="url(#p9a73616730)" style="fill: none; stroke-dasharray: 5.55,2.4; stroke-dashoffset: 0; stroke: #f58220; stroke-width: 1.5"/>
   </g>
   <g id="patch_3">
    <path d="M 57.6 307.584 
L 57.6 41.472 
" style="fill: none; stroke: #000000; stroke-width: 0.8; stroke-linejoin: miter; stroke-linecap: square"/>
   </g>
   <g id="patch_4">
    <path d="M 414.72 307.584 
L 414.72 41.472 
" style="fill: none; stroke: #000000; stroke-width: 0.8; stroke-linejoin: miter; stroke-linecap: square"/>
   </g>
   <g id="patch_5">
    <path d="M 57.6 307.584 
L 414.72 307.584 
" style="fill: none; stroke: #000000; stroke-width: 0.8; stroke-linejoin: miter; stroke-linecap: square"/>
   </g>
   <g id="patch_6">
    <path d="M 57.6 41.472 
L 414.72 41.472 
" style="fill: none; stroke: #000000; stroke-width: 0.8; stroke-linejoin: miter; stroke-linecap: square"/>
   </g>
   <g id="legend_1">
    <g id="patch_7">
     <path d="M 258.830938 108.1845 
L 407.72 108.1845 
Q 409.72 108.1845 409.72 106.1845 
L 409.72 48.472 
Q 409.72 46.472 407.72 46.472 
L 258.830938 46.472 
Q 256.830938 46.472 256.830938 48.472 
L 256.830938 106.1845 
Q 256.830938 108.1845 258.830938 108.1845 
z
" style="fill: #ffffff; opacity: 0.8; stroke: #cccccc; stroke-linejoin: miter"/>
    </g>
    <g id="line2d_33">
     <path d="M 260.830938 54.570438 
L 270.830938 54.570438 
L 280.830938 54.570438 
" style="fill: none; stroke-dasharray: 1.5,2.475; stroke-dashoffset: 0; stroke: #179c7d; stroke-width: 1.5"/>
     <g>
      <use xlink:href="#m8d644dee0f" x="270.830938" y="54.570438" style="fill: #179c7d; stroke: #179c7d"/>
     </g>
    </g>
    <g id="text_11">
     <!-- Circuit depth (tVHA) -->
     <g transform="translate(288.830938 58.070438) scale(0.1 -0.1)">
      <defs>
       <path id="DejaVuSans-28" d="M 1984 4856 
Q 1566 4138 1362 3434 
Q 1159 2731 1159 2009 
Q 1159 1288 1364 580 
Q 1569 -128 1984 -844 
L 1484 -844 
Q 1016 -109 783 600 
Q 550 1309 550 2009 
Q 550 2706 781 3412 
Q 1013 4119 1484 4856 
L 1984 4856 
z
" transform="scale(0.015625)"/>
       <path id="DejaVuSans-56" d="M 1831 0 
L 50 4666 
L 709 4666 
L 2188 738 
L 3669 4666 
L 4325 4666 
L 2547 0 
L 1831 0 
z
" transform="scale(0.015625)"/>
       <path id="DejaVuSans-48" d="M 628 4666 
L 1259 4666 
L 1259 2753 
L 3553 2753 
L 3553 4666 
L 4184 4666 
L 4184 0 
L 3553 0 
L 3553 2222 
L 1259 2222 
L 1259 0 
L 628 0 
L 628 4666 
z
" transform="scale(0.015625)"/>
       <path id="DejaVuSans-41" d="M 2188 4044 
L 1331 1722 
L 3047 1722 
L 2188 4044 
z
M 1831 4666 
L 2547 4666 
L 4325 0 
L 3669 0 
L 3244 1197 
L 1141 1197 
L 716 0 
L 50 0 
L 1831 4666 
z
" transform="scale(0.015625)"/>
       <path id="DejaVuSans-29" d="M 513 4856 
L 1013 4856 
Q 1481 4119 1714 3412 
Q 1947 2706 1947 2009 
Q 1947 1309 1714 600 
Q 1481 -109 1013 -844 
L 513 -844 
Q 928 -128 1133 580 
Q 1338 1288 1338 2009 
Q 1338 2731 1133 3434 
Q 928 4138 513 4856 
z
" transform="scale(0.015625)"/>
      </defs>
      <use xlink:href="#DejaVuSans-43"/>
      <use xlink:href="#DejaVuSans-69" transform="translate(69.824219 0)"/>
      <use xlink:href="#DejaVuSans-72" transform="translate(97.607422 0)"/>
      <use xlink:href="#DejaVuSans-63" transform="translate(136.470703 0)"/>
      <use xlink:href="#DejaVuSans-75" transform="translate(191.451172 0)"/>
      <use xlink:href="#DejaVuSans-69" transform="translate(254.830078 0)"/>
      <use xlink:href="#DejaVuSans-74" transform="translate(282.613281 0)"/>
      <use xlink:href="#DejaVuSans-20" transform="translate(321.822266 0)"/>
      <use xlink:href="#DejaVuSans-64" transform="translate(353.609375 0)"/>
      <use xlink:href="#DejaVuSans-65" transform="translate(417.085938 0)"/>
      <use xlink:href="#DejaVuSans-70" transform="translate(478.609375 0)"/>
      <use xlink:href="#DejaVuSans-74" transform="translate(542.085938 0)"/>
      <use xlink:href="#DejaVuSans-68" transform="translate(581.294922 0)"/>
      <use xlink:href="#DejaVuSans-20" transform="translate(644.673828 0)"/>
      <use xlink:href="#DejaVuSans-28" transform="translate(676.460938 0)"/>
      <use xlink:href="#DejaVuSans-74" transform="translate(715.474609 0)"/>
      <use xlink:href="#DejaVuSans-56" transform="translate(754.683594 0)"/>
      <use xlink:href="#DejaVuSans-48" transform="translate(823.091797 0)"/>
      <use xlink:href="#DejaVuSans-41" transform="translate(898.287109 0)"/>
      <use xlink:href="#DejaVuSans-29" transform="translate(966.695312 0)"/>
     </g>
    </g>
    <g id="line2d_34">
     <path d="M 260.830938 69.248563 
L 280.830938 69.248563 
" style="fill: none; stroke-dasharray: 9.6,2.4,1.5,2.4; stroke-dashoffset: 0; stroke: #008598; stroke-width: 1.5"/>
    </g>
    <g id="text_12">
     <!-- Circuit depth (UCCSD) -->
     <g transform="translate(288.830938 72.748563) scale(0.1 -0.1)">
      <defs>
       <path id="DejaVuSans-55" d="M 556 4666 
L 1191 4666 
L 1191 1831 
Q 1191 1081 1462 751 
Q 1734 422 2344 422 
Q 2950 422 3222 751 
Q 3494 1081 3494 1831 
L 3494 4666 
L 4128 4666 
L 4128 1753 
Q 4128 841 3676 375 
Q 3225 -91 2344 -91 
Q 1459 -91 1007 375 
Q 556 841 556 1753 
L 556 4666 
z
" transform="scale(0.015625)"/>
       <path id="DejaVuSans-53" d="M 3425 4513 
L 3425 3897 
Q 3066 4069 2747 4153 
Q 2428 4238 2131 4238 
Q 1616 4238 1336 4038 
Q 1056 3838 1056 3469 
Q 1056 3159 1242 3001 
Q 1428 2844 1947 2747 
L 2328 2669 
Q 3034 2534 3370 2195 
Q 3706 1856 3706 1288 
Q 3706 609 3251 259 
Q 2797 -91 1919 -91 
Q 1588 -91 1214 -16 
Q 841 59 441 206 
L 441 856 
Q 825 641 1194 531 
Q 1563 422 1919 422 
Q 2459 422 2753 634 
Q 3047 847 3047 1241 
Q 3047 1584 2836 1778 
Q 2625 1972 2144 2069 
L 1759 2144 
Q 1053 2284 737 2584 
Q 422 2884 422 3419 
Q 422 4038 858 4394 
Q 1294 4750 2059 4750 
Q 2388 4750 2728 4690 
Q 3069 4631 3425 4513 
z
" transform="scale(0.015625)"/>
       <path id="DejaVuSans-44" d="M 1259 4147 
L 1259 519 
L 2022 519 
Q 2988 519 3436 956 
Q 3884 1394 3884 2338 
Q 3884 3275 3436 3711 
Q 2988 4147 2022 4147 
L 1259 4147 
z
M 628 4666 
L 1925 4666 
Q 3281 4666 3915 4102 
Q 4550 3538 4550 2338 
Q 4550 1131 3912 565 
Q 3275 0 1925 0 
L 628 0 
L 628 4666 
z
" transform="scale(0.015625)"/>
      </defs>
      <use xlink:href="#DejaVuSans-43"/>
      <use xlink:href="#DejaVuSans-69" transform="translate(69.824219 0)"/>
      <use xlink:href="#DejaVuSans-72" transform="translate(97.607422 0)"/>
      <use xlink:href="#DejaVuSans-63" transform="translate(136.470703 0)"/>
      <use xlink:href="#DejaVuSans-75" transform="translate(191.451172 0)"/>
      <use xlink:href="#DejaVuSans-69" transform="translate(254.830078 0)"/>
      <use xlink:href="#DejaVuSans-74" transform="translate(282.613281 0)"/>
      <use xlink:href="#DejaVuSans-20" transform="translate(321.822266 0)"/>
      <use xlink:href="#DejaVuSans-64" transform="translate(353.609375 0)"/>
      <use xlink:href="#DejaVuSans-65" transform="translate(417.085938 0)"/>
      <use xlink:href="#DejaVuSans-70" transform="translate(478.609375 0)"/>
      <use xlink:href="#DejaVuSans-74" transform="translate(542.085938 0)"/>
      <use xlink:href="#DejaVuSans-68" transform="translate(581.294922 0)"/>
      <use xlink:href="#DejaVuSans-20" transform="translate(644.673828 0)"/>
      <use xlink:href="#DejaVuSans-28" transform="translate(676.460938 0)"/>
      <use xlink:href="#DejaVuSans-55" transform="translate(715.474609 0)"/>
      <use xlink:href="#DejaVuSans-43" transform="translate(788.667969 0)"/>
      <use xlink:href="#DejaVuSans-43" transform="translate(858.492188 0)"/>
      <use xlink:href="#DejaVuSans-53" transform="translate(928.316406 0)"/>
      <use xlink:href="#DejaVuSans-44" transform="translate(991.792969 0)"/>
      <use xlink:href="#DejaVuSans-29" transform="translate(1068.794922 0)"/>
     </g>
    </g>
    <g id="line2d_35">
     <path d="M 260.830938 83.926688 
L 280.830938 83.926688 
" style="fill: none; stroke-dasharray: 9.6,2.4,1.5,2.4; stroke-dashoffset: 0; stroke: #b2d235; stroke-width: 1.5"/>
    </g>
    <g id="text_13">
     <!-- Circuit depth (UCCSDT) -->
     <g transform="translate(288.830938 87.426688) scale(0.1 -0.1)">
      <use xlink:href="#DejaVuSans-43"/>
      <use xlink:href="#DejaVuSans-69" transform="translate(69.824219 0)"/>
      <use xlink:href="#DejaVuSans-72" transform="translate(97.607422 0)"/>
      <use xlink:href="#DejaVuSans-63" transform="translate(136.470703 0)"/>
      <use xlink:href="#DejaVuSans-75" transform="translate(191.451172 0)"/>
      <use xlink:href="#DejaVuSans-69" transform="translate(254.830078 0)"/>
      <use xlink:href="#DejaVuSans-74" transform="translate(282.613281 0)"/>
      <use xlink:href="#DejaVuSans-20" transform="translate(321.822266 0)"/>
      <use xlink:href="#DejaVuSans-64" transform="translate(353.609375 0)"/>
      <use xlink:href="#DejaVuSans-65" transform="translate(417.085938 0)"/>
      <use xlink:href="#DejaVuSans-70" transform="translate(478.609375 0)"/>
      <use xlink:href="#DejaVuSans-74" transform="translate(542.085938 0)"/>
      <use xlink:href="#DejaVuSans-68" transform="translate(581.294922 0)"/>
      <use xlink:href="#DejaVuSans-20" transform="translate(644.673828 0)"/>
      <use xlink:href="#DejaVuSans-28" transform="translate(676.460938 0)"/>
      <use xlink:href="#DejaVuSans-55" transform="translate(715.474609 0)"/>
      <use xlink:href="#DejaVuSans-43" transform="translate(788.667969 0)"/>
      <use xlink:href="#DejaVuSans-43" transform="translate(858.492188 0)"/>
      <use xlink:href="#DejaVuSans-53" transform="translate(928.316406 0)"/>
      <use xlink:href="#DejaVuSans-44" transform="translate(991.792969 0)"/>
      <use xlink:href="#DejaVuSans-54" transform="translate(1068.794922 0)"/>
      <use xlink:href="#DejaVuSans-29" transform="translate(1129.878906 0)"/>
     </g>
    </g>
    <g id="line2d_36">
     <path d="M 260.830938 98.604813 
L 280.830938 98.604813 
" style="fill: none; stroke-dasharray: 5.55,2.4; stroke-dashoffset: 0; stroke: #f58220; stroke-width: 1.5"/>
    </g>
    <g id="text_14">
     <!-- Circuit depth (HEA) -->
     <g transform="translate(288.830938 102.104813) scale(0.1 -0.1)">
      <defs>
       <path id="DejaVuSans-45" d="M 628 4666 
L 3578 4666 
L 3578 4134 
L 1259 4134 
L 1259 2753 
L 3481 2753 
L 3481 2222 
L 1259 2222 
L 1259 531 
L 3634 531 
L 3634 0 
L 628 0 
L 628 4666 
z
" transform="scale(0.015625)"/>
      </defs>
      <use xlink:href="#DejaVuSans-43"/>
      <use xlink:href="#DejaVuSans-69" transform="translate(69.824219 0)"/>
      <use xlink:href="#DejaVuSans-72" transform="translate(97.607422 0)"/>
      <use xlink:href="#DejaVuSans-63" transform="translate(136.470703 0)"/>
      <use xlink:href="#DejaVuSans-75" transform="translate(191.451172 0)"/>
      <use xlink:href="#DejaVuSans-69" transform="translate(254.830078 0)"/>
      <use xlink:href="#DejaVuSans-74" transform="translate(282.613281 0)"/>
      <use xlink:href="#DejaVuSans-20" transform="translate(321.822266 0)"/>
      <use xlink:href="#DejaVuSans-64" transform="translate(353.609375 0)"/>
      <use xlink:href="#DejaVuSans-65" transform="translate(417.085938 0)"/>
      <use xlink:href="#DejaVuSans-70" transform="translate(478.609375 0)"/>
      <use xlink:href="#DejaVuSans-74" transform="translate(542.085938 0)"/>
      <use xlink:href="#DejaVuSans-68" transform="translate(581.294922 0)"/>
      <use xlink:href="#DejaVuSans-20" transform="translate(644.673828 0)"/>
      <use xlink:href="#DejaVuSans-28" transform="translate(676.460938 0)"/>
      <use xlink:href="#DejaVuSans-48" transform="translate(715.474609 0)"/>
      <use xlink:href="#DejaVuSans-45" transform="translate(790.669922 0)"/>
      <use xlink:href="#DejaVuSans-41" transform="translate(853.853516 0)"/>
      <use xlink:href="#DejaVuSans-29" transform="translate(922.261719 0)"/>
     </g>
    </g>
   </g>
  </g>
 </g>
 <defs>
  <clipPath id="p9a73616730">
   <rect x="57.6" y="41.472" width="357.12" height="266.112"/>
  </clipPath>
 </defs>
</svg>
